<?xml version="1.0" encoding="UTF-8"?>
<svg id="Camada_1" xmlns="http://www.w3.org/2000/svg" version="1.1" viewBox="0 0 1920 1080">
  <!-- Generator: Adobe Illustrator 29.8.3, SVG Export Plug-In . SVG Version: 2.1.1 Build 3)  -->
  <defs>
    <style>
      .st0 {
        stroke: rgba(212, 213, 213, 0.1);
        stroke-miterlimit: 10;
      }

      .st0, .st1 {
        fill: rgba(212, 213, 213, 0.1);
      }
    </style>
  </defs>
  <path class="st0" d="M2089.96,330.96c0-1.54-1.25-2.79-2.79-2.79l-162.67.03-79.09,136.92-12.88-22.3,79.09-136.92,159.45-.03c1.54,0,2.79-1.25,2.79-2.79s-1.25-2.79-2.79-2.79l-162.67.03-79.09,136.92-12.88-22.3,79.09-136.93,159.45-.03c1.54,0,2.79-1.25,2.79-2.79s-1.25-2.79-2.79-2.79l-162.67.03-79.09,136.93-12.88-22.3,79.1-136.94,159.45-.03c1.54,0,2.79-1.25,2.79-2.79s-1.25-2.79-2.79-2.79l-162.67.03-79.1,136.94-12.88-22.3,79.1-136.94,159.45-.03c1.54,0,2.79-1.25,2.79-2.79s-1.25-2.79-2.79-2.79l-162.67.03-79.1,136.94-12.88-22.3,79.11-136.95,159.45-.03c1.54,0,2.79-1.25,2.79-2.79,0-.35-.07-.67-.19-.98,0,0,0-.01,0-.02-.03-.07-.06-.14-.1-.21-.04-.1-.08-.2-.13-.3l-78.11-135.24h25.7s63.66,110.2,63.66,110.2c.52.9,1.45,1.4,2.42,1.4.47,0,.95-.12,1.39-.37,1.33-.77,1.79-2.48,1.02-3.81l-62.04-107.42h25.77s47.55,82.32,47.55,82.32c.52.9,1.45,1.4,2.42,1.4.47,0,.95-.12,1.39-.37,1.33-.77,1.79-2.48,1.02-3.81l-45.94-79.54h25.76s31.44,54.44,31.44,54.44c.52.9,1.45,1.39,2.42,1.39.47,0,.95-.12,1.39-.37,1.33-.77,1.79-2.48,1.02-3.81l-29.83-51.66h25.76s15.35,26.56,15.35,26.56c.52.89,1.45,1.39,2.42,1.39.47,0,.95-.12,1.39-.37,1.33-.77,1.79-2.48,1.02-3.81l-13.73-23.78h27.47c1.54,0,2.79-1.26,2.79-2.8s-1.25-2.79-2.79-2.79l-162.67.03-80.56,139.47-161.29.03-78.93,136.65-12.88-22.31,78.93-136.65,159.45-.03s.07,0,.11-.01c.04,0,.08,0,.12,0,.96,0,1.9-.5,2.42-1.4l79.75-138.07,159.45-.03c1.54,0,2.79-1.25,2.79-2.79s-1.25-2.79-2.79-2.79l-162.67.03-80.56,139.47-161.29.03-78.93,136.64-12.88-22.31,78.93-136.64,159.45-.03s.07,0,.11-.01c.04,0,.08,0,.12,0,.96,0,1.9-.5,2.42-1.39L1895.52-.98l159.45-.03c1.54,0,2.79-1.25,2.79-2.79s-1.25-2.79-2.79-2.79l-162.67.03-80.56,139.47-161.29.03-78.93,136.64-12.88-22.31,78.92-136.63,159.45-.03s.07,0,.11-.01c.04,0,.08,0,.12,0,.96,0,1.9-.5,2.42-1.39l79.75-138.07,159.45-.03c1.54,0,2.79-1.25,2.79-2.79s-1.25-2.79-2.79-2.79l-162.67.03-80.56,139.47-161.29.03-78.92,136.63-12.88-22.31,78.92-136.62,159.45-.03s.08,0,.11-.01c.04,0,.08,0,.12,0,.96,0,1.9-.5,2.42-1.39l79.75-138.07,159.45-.03c1.54,0,2.79-1.25,2.79-2.79s-1.25-2.79-2.79-2.79l-162.67.03-80.56,139.47-161.29.03-78.92,136.62-12.88-22.31,78.91-136.62,159.45-.03s.08,0,.11-.01c.04,0,.08,0,.12,0,.17,0,.34-.02.51-.05h.97c1.54,0,2.79-1.25,2.79-2.79,0-.45-.11-.86-.3-1.23l78.2-135.39,159.45-.03c1.54,0,2.79-1.25,2.79-2.79s-1.25-2.79-2.79-2.79l-160.64.03c-.23-.06-.47-.1-.72-.1l-162.67.03-78.93,136.65-12.88-22.31,78.93-136.65,159.45-.03c1.54,0,2.79-1.25,2.79-2.79s-1.25-2.79-2.79-2.79l-162.67.03-78.93,136.64-12.88-22.31,78.93-136.64,159.45-.03c1.54,0,2.79-1.25,2.79-2.79s-1.25-2.79-2.79-2.79l-162.67.03-78.93,136.64-12.88-22.31,78.92-136.63,159.45-.03c1.54,0,2.79-1.25,2.79-2.79s-1.25-2.79-2.79-2.79l-162.67.03-78.92,136.63-12.88-22.31,78.92-136.62,159.45-.03c1.54,0,2.79-1.25,2.79-2.79s-1.25-2.79-2.79-2.79l-162.67.03-78.92,136.62-12.88-22.31,78.91-136.62,159.45-.03c1.54,0,2.79-1.25,2.79-2.79s-1.25-2.79-2.79-2.79l-162.67.03-80.74,139.77c-.97.75-1.34,2.04-.91,3.18.1.4.31.77.58,1.09l15.62,27.07c.11.28.26.55.46.79l15.66,27.13c.1.26.24.51.42.73l15.69,27.19c.1.24.23.47.39.68l15.72,27.25c.09.22.21.42.35.61l14.98,25.96-79.7,138.1s-.03.08-.05.11c-.03.07-.06.14-.09.2-.04.1-.08.2-.11.3-.02.07-.03.15-.05.22-.02.1-.04.2-.05.3,0,.09,0,.17,0,.26s0,.17,0,.26c0,.1.03.2.05.3.01.07.03.15.05.22.02.07.04.14.07.21.1.4.31.77.58,1.09l15.62,27.07c.11.28.26.55.46.79l15.66,27.13c.1.26.24.51.42.73l15.69,27.19c.1.24.23.47.39.68l15.72,27.25c.09.22.21.42.35.61l14.98,25.96-79.08,137.03h-25.75s79.07-137.03,79.07-137.03l-80.5-139.5,80.5-139.5-81.3-140.89c-.77-1.33-2.48-1.79-3.81-1.02-1.34.77-1.79,2.48-1.02,3.81l79.7,138.1-79.7,138.1s-.03.08-.05.11c-.03.07-.06.14-.09.2-.04.1-.08.2-.11.3-.02.07-.03.15-.05.22-.02.1-.04.2-.05.3,0,.09,0,.17,0,.26s0,.17,0,.26c0,.1.03.2.05.3.02.07.03.15.05.22.03.1.07.2.11.3.03.07.06.14.09.2.02.04.03.08.05.11l79.7,138.1-79.07,137.02h-25.75s79.07-137.02,79.07-137.02l-80.5-139.5,80.5-139.5-81.3-140.89c-.77-1.33-2.48-1.79-3.81-1.02-1.34.77-1.79,2.48-1.02,3.81l79.7,138.1-79.7,138.1s-.03.08-.05.11c-.03.07-.06.14-.09.2-.04.1-.08.2-.11.3-.02.07-.03.15-.05.22-.02.1-.04.2-.05.3,0,.09,0,.17,0,.26s0,.17,0,.26c0,.1.03.2.05.3.01.07.03.15.05.22.03.1.07.2.11.3.03.07.06.14.09.2.02.04.03.08.05.11l79.7,138.1-79.07,137.02h-25.75s79.06-137.02,79.06-137.02l-80.5-139.5,80.5-139.5-81.3-140.89c-.77-1.33-2.48-1.79-3.81-1.02-1.34.77-1.79,2.48-1.02,3.81l79.69,138.1-79.69,138.1s-.03.08-.05.11c-.03.07-.06.14-.09.2-.04.1-.08.2-.11.3-.02.07-.03.15-.05.22-.02.1-.04.2-.05.3,0,.09,0,.17,0,.26s0,.17,0,.26c0,.1.03.2.05.3.01.07.03.15.05.22.03.1.07.2.11.3.03.07.06.14.09.2.02.04.03.08.05.11l79.69,138.1-79.06,137.01h-25.75s79.06-137.01,79.06-137.01l-80.5-139.5,80.5-139.5-81.3-140.89c-.77-1.33-2.48-1.79-3.81-1.02-1.34.77-1.79,2.48-1.02,3.81l79.7,138.1-79.7,138.1s-.03.08-.05.11c-.03.07-.06.14-.09.2-.04.1-.08.2-.11.3-.02.07-.03.15-.05.22-.02.1-.04.2-.05.3,0,.09,0,.17,0,.26s0,.17,0,.26c0,.1.03.2.05.3.01.07.03.15.05.22.03.1.07.2.11.3.03.07.06.14.09.2.02.04.03.08.05.11l79.7,138.1-79.06,137h-25.75s79.06-137,79.06-137l-80.5-139.5,80.5-139.5-81.3-140.89s-.03-.04-.04-.06l-80.47-139.44c-.77-1.33-2.48-1.79-3.81-1.02-1.34.77-1.79,2.48-1.02,3.81l79.7,138.1-15.17,26.3c-.12.16-.22.33-.3.52l-15.79,27.36c-.13.18-.24.36-.32.56l-15.75,27.28c-.15.19-.27.4-.37.63l-15.72,27.24c-.15.2-.29.42-.38.66l-15.89,27.54s-.03.08-.05.11c-.03.07-.06.14-.09.2-.04.1-.08.2-.11.3-.02.07-.03.15-.05.22-.02.1-.04.2-.05.3,0,.09,0,.17,0,.26h0s0,.01,0,.01h0c0,.09,0,.17,0,.25,0,.09.03.19.05.28,0,.02,0,.04.01.06.01.06.03.12.04.18.03.09.06.17.09.26.01.03.03.06.04.1.02.05.05.1.07.15.02.04.03.08.05.11l79.7,138.1-15.17,26.3c-.12.16-.22.33-.3.52l-15.79,27.36c-.13.18-.24.36-.32.56l-15.75,27.28c-.15.19-.27.4-.37.63l-15.72,27.24c-.15.2-.29.42-.38.66l-15.89,27.54s-.03.08-.05.11c-.03.07-.06.14-.09.2-.04.1-.08.2-.11.3-.02.07-.03.15-.05.22-.02.1-.04.2-.05.3,0,.09,0,.17,0,.26h0s0,.01,0,.01h0c0,.09,0,.17,0,.25,0,.09.03.19.05.28,0,.02,0,.04.01.06.01.06.03.12.04.18.03.09.06.17.09.26.01.03.03.06.04.1.02.05.05.1.07.15.02.04.03.08.05.11l79.7,138.1-79.08,137.03h-25.75s79.07-137.03,79.07-137.03l-80.5-139.5,80.5-139.5-80.5-139.5,80.5-139.5-81.3-140.89c-.77-1.33-2.48-1.79-3.81-1.02-1.34.77-1.79,2.48-1.02,3.81l79.7,138.1-79.7,138.1s-.03.08-.05.11c-.03.07-.06.14-.09.2-.04.1-.08.2-.11.3-.02.07-.03.15-.05.22-.02.1-.04.2-.05.3,0,.09,0,.17,0,.26s0,.17,0,.26c0,.1.03.2.05.3.01.07.03.15.05.22.03.1.07.2.11.3.03.07.06.14.09.2.02.04.03.08.05.11l79.7,138.1-79.7,138.1s-.03.08-.05.11c-.03.07-.06.14-.09.2-.04.1-.08.2-.11.3-.02.07-.03.15-.05.22-.02.1-.04.2-.05.3,0,.09,0,.17,0,.26s0,.17,0,.26c0,.1.03.2.05.3.01.07.03.15.05.22.03.1.07.2.11.3.03.07.06.14.09.2.02.04.03.08.05.11l79.7,138.1-79.07,137.02h-25.75s79.07-137.02,79.07-137.02l-80.5-139.5,80.5-139.5-80.5-139.5,80.5-139.5-81.3-140.89c-.77-1.33-2.48-1.79-3.81-1.02-1.34.77-1.79,2.48-1.02,3.81l79.7,138.1-79.7,138.1s-.03.08-.05.11c-.03.07-.06.14-.09.2-.04.1-.08.2-.11.3-.02.07-.03.15-.05.22-.02.1-.04.2-.05.3,0,.09,0,.17,0,.26s0,.17,0,.26c0,.1.03.2.05.3.01.07.03.15.05.22.03.1.07.2.11.3.03.07.06.14.09.2.02.04.03.08.05.11l79.7,138.1-79.7,138.1s-.03.08-.05.11c-.03.07-.06.14-.09.2-.04.1-.08.2-.11.3-.02.07-.03.15-.05.22-.02.1-.04.2-.05.3,0,.09,0,.17,0,.26s0,.17,0,.26c0,.1.03.2.05.3.01.07.03.15.05.22.03.1.07.2.11.3.03.07.06.14.09.2.02.04.03.08.05.11l79.7,138.1-79.07,137.02h-25.75s79.06-137.02,79.06-137.02l-80.5-139.5,80.5-139.5-80.5-139.5,80.5-139.5-81.3-140.89c-.77-1.33-2.48-1.79-3.81-1.02-1.34.77-1.79,2.48-1.02,3.81l79.69,138.1-79.69,138.1s-.03.08-.05.11c-.03.07-.06.14-.09.2-.04.1-.08.2-.11.3-.02.07-.03.15-.05.22-.02.1-.04.2-.05.3,0,.09,0,.17,0,.26s0,.17,0,.26c0,.1.03.2.05.3.01.07.03.15.05.22.03.1.07.2.11.3.03.07.06.14.09.2.02.04.03.08.05.11l79.69,138.1-79.69,138.1s-.03.08-.05.11c-.03.07-.06.14-.09.2-.04.1-.08.2-.11.3-.02.07-.03.15-.05.22-.02.1-.04.2-.05.3,0,.09,0,.17,0,.26s0,.17,0,.26c0,.1.03.2.05.3.01.07.03.15.05.22.03.1.07.2.11.3.03.07.06.14.09.2.02.04.03.08.05.11l79.69,138.1-79.06,137.01h-25.75s79.06-137.01,79.06-137.01l-80.5-139.5,80.5-139.5-80.5-139.5,80.5-139.5-81.3-140.89c-.77-1.33-2.48-1.79-3.81-1.02-1.34.77-1.79,2.48-1.02,3.81l79.7,138.1-79.7,138.1s-.03.08-.05.11c-.03.07-.06.14-.09.2-.04.1-.08.2-.11.3-.02.07-.03.15-.05.22-.02.1-.04.2-.05.3,0,.09,0,.17,0,.26s0,.17,0,.26c0,.1.03.2.05.3.01.07.03.15.05.22.03.1.07.2.11.3.03.07.06.14.09.2.02.04.03.08.05.11l79.7,138.1-79.7,138.1s-.03.08-.05.11c-.03.07-.06.14-.09.2-.04.1-.08.2-.11.3-.02.07-.03.15-.05.22-.02.1-.04.2-.05.3,0,.09,0,.17,0,.26s0,.17,0,.26c0,.1.03.2.05.3.01.07.03.15.05.22.03.1.07.2.11.3.03.07.06.14.09.2.02.04.03.08.05.11l79.7,138.1-79.06,137h-25.75s79.06-137,79.06-137l-80.5-139.5,80.5-139.5-80.5-139.5,80.5-139.5-81.3-140.89c-.71-1.24-2.23-1.71-3.51-1.16-.03.01-.06.03-.09.04-.07.03-.14.05-.21.09-.04.02-.07.05-.11.08-.1.06-.19.13-.27.2-.04.03-.07.06-.11.09-.58.51-.95,1.25-.95,2.08,0,.68.25,1.29.66,1.78l13.46,23.32h-27.42s0,0,0,0c-1.54,0-2.79,1.25-2.79,2.79s1.25,2.79,2.79,2.79h30.65s12.88,22.32,12.88,22.32h-59.62c-1.54,0-2.79,1.24-2.79,2.78s1.25,2.79,2.79,2.79h62.84s12.88,22.32,12.88,22.32h-91.82c-1.54-.01-2.79,1.23-2.79,2.78s1.25,2.79,2.79,2.79h95.04s12.88,22.33,12.88,22.33l-124.01-.02h0c-1.54,0-2.79,1.25-2.79,2.79s1.25,2.79,2.79,2.79l127.24.02,12.87,22.3-156.16.02c-.43,0-.83.1-1.19.27l-161.29.03-80.74,139.77c-.97.75-1.34,2.04-.91,3.18.1.4.31.77.58,1.1l15.62,27.07c.11.29.26.56.46.8l15.65,27.13c.1.27.24.51.43.74l15.69,27.19c.1.24.23.47.39.68l15.72,27.25c.09.22.21.43.36.62l14.98,25.96-79.08,137.03h-25.76s79.07-137.03,79.07-137.03l-80.5-139.5,80.5-139.5-81.3-140.89c-.77-1.33-2.48-1.79-3.81-1.02-1.33.77-1.79,2.48-1.02,3.81l79.69,138.1-79.69,138.1s-.03.07-.05.11c-.04.07-.06.14-.09.21-.04.1-.08.2-.11.3-.02.07-.03.15-.05.22-.02.1-.04.2-.05.3,0,.09,0,.17,0,.26s0,.17,0,.26c0,.1.03.2.05.3.02.07.03.15.05.22.03.1.07.2.11.3.03.07.06.14.09.21.02.04.03.08.05.11l79.69,138.1-79.07,137.02h-25.75s79.07-137.02,79.07-137.02l-80.5-139.5,80.5-139.5-81.3-140.89c-.77-1.33-2.48-1.79-3.81-1.02-1.33.77-1.79,2.48-1.02,3.81l79.69,138.1-79.69,138.1s-.03.07-.05.11c-.04.07-.06.14-.09.21-.04.1-.08.2-.11.3-.02.07-.03.15-.05.22-.02.1-.04.2-.05.3,0,.09,0,.17,0,.26s0,.17,0,.26c0,.1.03.2.05.3.02.07.03.15.05.22.03.1.07.2.11.3.03.07.06.14.09.21.02.04.03.08.05.11l79.69,138.1-79.07,137.02h-25.75s79.06-137.02,79.06-137.02l-80.5-139.5,80.5-139.5-81.3-140.89c-.77-1.33-2.48-1.79-3.81-1.02-1.33.77-1.79,2.48-1.02,3.81l79.69,138.1-79.69,138.1s-.03.07-.05.11c-.04.07-.06.14-.09.21-.04.1-.08.2-.11.3-.02.07-.03.15-.05.22-.02.1-.04.2-.05.3,0,.09,0,.17,0,.26s0,.17,0,.26c0,.1.03.2.05.3.02.07.03.15.05.22.03.1.07.2.11.3.03.07.06.14.09.21.02.04.03.08.05.11l79.69,138.1-79.06,137.01h-25.75s79.06-137.01,79.06-137.01l-80.5-139.5,80.5-139.5-81.31-140.89c-.77-1.33-2.48-1.79-3.81-1.02-1.33.77-1.79,2.48-1.02,3.81l79.7,138.1-79.7,138.1s-.03.07-.05.11c-.04.07-.06.14-.09.21-.04.1-.08.2-.11.3-.02.07-.03.15-.05.22-.02.1-.04.2-.05.3,0,.09,0,.17,0,.26s0,.17,0,.26c0,.1.03.2.05.3.02.07.03.15.05.22.03.1.07.2.11.3.03.07.06.14.09.21.02.04.03.08.05.11l79.7,138.1-79.06,137h-25.75s79.06-137,79.06-137l-80.5-139.5,80.5-139.5-81.3-140.89c-.71-1.24-2.23-1.71-3.51-1.16-.03.01-.06.03-.09.04-.07.03-.14.05-.21.09-.04.02-.07.05-.11.08-.09.06-.18.12-.27.19-.04.03-.08.06-.12.1-.58.51-.95,1.25-.95,2.08,0,.68.25,1.29.65,1.78l13.46,23.32h-27.42s0,0,0,0c-1.54,0-2.79,1.25-2.79,2.79,0,1.54,1.25,2.79,2.79,2.79h30.65s12.88,22.32,12.88,22.32h-59.62s0,0,0,0c-1.54,0-2.79,1.25-2.79,2.79,0,1.54,1.25,2.79,2.79,2.79h62.84s12.88,22.32,12.88,22.32h-91.82s0-.01,0-.01c-1.54,0-2.79,1.25-2.79,2.79s1.25,2.79,2.79,2.79h95.04s12.88,22.33,12.88,22.33l-124.02-.02h0c-1.54,0-2.79,1.25-2.79,2.79,0,1.54,1.25,2.79,2.79,2.79l127.24.02,12.87,22.3-156.16.02c-1.42,0-2.58,1.07-2.75,2.44l-80.84,140.09,78.91,136.74h-25.75s-78.91-136.74-78.91-136.74l79.7-138.1c.77-1.33.31-3.04-1.02-3.81-1.33-.77-3.04-.31-3.81,1.02l-81.31,140.89,78.91,136.75h-25.75s-78.92-136.75-78.92-136.75l79.69-138.1c.77-1.33.31-3.04-1.02-3.81-1.34-.77-3.04-.31-3.81,1.02l-81.3,140.89,78.92,136.76h-25.75s-78.92-136.76-78.92-136.76l79.69-138.1c.77-1.33.31-3.04-1.02-3.81-1.34-.77-3.04-.31-3.81,1.02l-81.3,140.89,78.92,136.76h-25.75s-78.92-136.76-78.92-136.76l79.69-138.1c.77-1.33.31-3.04-1.02-3.81-1.33-.77-3.04-.31-3.81,1.02l-81.3,140.89,78.93,136.77h-25.76s-78.81-136.56-78.81-136.56c0-.09.03-.17.03-.26,0-.06-.01-.12-.02-.18l47.43-82.19s.02-.03.03-.05l15.89-27.53c.09-.13.17-.27.24-.41l15.85-27.47c.35-.47.56-1.04.56-1.66,0-1.54-1.25-2.79-2.79-2.79l-162.67.03L153.03,49.17l-160.95.03-81.36,140.86c-.12.22-.21.44-.27.67l-80.23,138.9c-.77,1.33-.31,3.04,1.02,3.81.44.25.92.37,1.39.37.96,0,1.9-.5,2.42-1.4l79.75-138.07,159.45-.03c.21,0,.41-.03.61-.07h26.69s-12.92,22.38-12.92,22.38l-160.94.03-81.36,140.86c-.77,1.33-.31,3.04,1.02,3.81.44.25.92.37,1.39.37.96,0,1.9-.5,2.42-1.4l79.75-138.07,159.45-.03c1.28,0,2.34-.87,2.67-2.04l14.97-25.91h25.76s-29.02,50.26-29.02,50.26l-160.95.03-81.36,140.86c-.77,1.33-.31,3.04,1.02,3.81.44.25.92.37,1.39.37.96,0,1.9-.5,2.42-1.4L-53,250.13l159.45-.03c1.27,0,2.33-.85,2.67-2.01l31.08-53.82h25.76s-45.12,78.13-45.12,78.13l-160.95.03-81.36,140.86c-.77,1.33-.31,3.04,1.02,3.81.44.25.92.37,1.39.37.96,0,1.9-.5,2.42-1.39l79.75-138.07,159.45-.03c1.27,0,2.33-.86,2.67-2.02l47.18-81.69h25.77s-61.23,106.01-61.23,106.01l-160.96.03-81.36,140.86c-.77,1.33-.31,3.04,1.02,3.81.44.25.92.37,1.39.37.96,0,1.9-.5,2.42-1.4L-20.8,305.9l159.45-.03c1.26,0,2.32-.84,2.66-2l63.3-109.59h25.75s-77.27,133.89-77.27,133.89l-161,.03-81.36,140.86c-.12.22-.21.44-.27.67l-80.23,138.9c-.77,1.33-.31,3.04,1.02,3.81.44.25.92.37,1.39.37.96,0,1.9-.5,2.42-1.4l79.75-138.07,159.45-.03c1.27,0,2.33-.85,2.67-2.02l79.4-137.45,159.45-.03c1.27,0,2.33-.86,2.67-2.02l15.57-26.95c.2-.24.35-.51.46-.8l15.66-27.11c.18-.22.32-.47.43-.74l15.69-27.17c.17-.21.29-.44.39-.68l15.73-27.23c.15-.19.26-.4.36-.62l15.11-26.15,159.45-.03c.43,0,.83-.1,1.19-.27l154.8-.02-12.85,22.26-127.27.02c-.46,0-.88.12-1.26.32l-161.17.03-80.56,139.47-160.95.03-80.56,139.47-160.95.03-81.36,140.86c-.77,1.33-.31,3.04,1.02,3.81.44.25.92.37,1.39.37.96,0,1.9-.5,2.42-1.4l79.75-138.07,159.45-.03c1.27,0,2.33-.85,2.67-2.02l79.4-137.45,159.45-.03c1.27,0,2.33-.86,2.67-2.02l79.39-137.45,159.45-.03c.46,0,.88-.12,1.26-.32l122.55-.02-12.88,22.32h-95.07c-.45.01-.87.13-1.25.32l-161.18.03-80.56,139.47-160.95.03-80.56,139.47-160.95.03-81.36,140.86c-.77,1.33-.31,3.04,1.02,3.81.44.25.92.37,1.39.37.96,0,1.9-.5,2.42-1.39l79.75-138.07,159.45-.03c1.27,0,2.33-.85,2.67-2.02l79.4-137.45,159.45-.03c1.27,0,2.33-.86,2.67-2.02l79.39-137.45,159.45-.03c.45,0,.87-.12,1.25-.31h90.36s-12.88,22.3-12.88,22.3h-62.88c-.45,0-.88.13-1.26.32l-161.18.03-80.56,139.47-160.95.03-80.56,139.47-160.95.03-81.36,140.86c-.77,1.33-.31,3.04,1.02,3.81.44.25.92.37,1.39.37.96,0,1.9-.5,2.42-1.4l79.75-138.07,159.45-.03c1.27,0,2.33-.85,2.67-2.02l79.4-137.45,159.45-.03c1.27,0,2.33-.86,2.67-2.02l79.39-137.45,159.45-.03c.45,0,.88-.12,1.26-.31h58.16s-12.88,22.31-12.88,22.31h-30.68c-.45,0-.87.12-1.24.31l-161.19.03-80.56,139.47-160.95.03-80.56,139.47-160.95.03-81.36,140.86c-.77,1.33-.31,3.04,1.02,3.81.44.25.92.37,1.39.37.96,0,1.9-.5,2.42-1.4l79.75-138.07,159.45-.03c1.27,0,2.33-.85,2.67-2.02l79.39-137.45,159.45-.03c1.27,0,2.33-.86,2.67-2.02l79.39-137.45,159.45-.03c.45,0,.87-.12,1.24-.31h25.98s-13.05,22.61-13.05,22.61l-160.74.03-80.56,139.47-160.95.03-80.56,139.47-160.95.03-81.36,140.86c-.24.42-.35.88-.36,1.34,0,.04-.01.08-.01.13,0,.03,0,.05,0,.07,0,.04,0,.09.01.13.11,1.44,1.3,2.59,2.77,2.59l159.45.03,63.46,109.86s.05.09.08.13l15.75,27.27c.11.35.28.67.51.94l13.46,23.33h-25.72s-79.61-137.82-79.61-137.82l-.81-1.39-162.67-.03h0c-1.54,0-2.79,1.25-2.79,2.79s1.25,2.79,2.79,2.79l159.45.03,79.29,137.26c.14.45.39.86.73,1.18.54.66,1.34,1.02,2.16,1.02.38,0,.77-.08,1.14-.25h29.27s12.88,22.32,12.88,22.32h-57.92s-80.42-139.23-80.42-139.23l-162.67-.03h0c-1.54,0-2.79,1.25-2.79,2.79,0,1.54,1.25,2.79,2.79,2.79l159.45.03,79.28,137.25c.15.47.4.88.75,1.21.54.64,1.33,1,2.14,1,.38,0,.76-.08,1.13-.24h61.48s12.88,22.32,12.88,22.32h-90.11s-80.42-139.23-80.42-139.23l-162.67-.03h0c-1.54,0-2.79,1.25-2.79,2.79s1.25,2.79,2.79,2.79l159.45.03,79.28,137.25c.15.46.4.88.75,1.2.54.65,1.33,1.01,2.14,1.01.38,0,.77-.08,1.13-.25l93.67.02,12.88,22.32-122.31-.02L11.4,858.32l-162.67-.03h0c-1.54,0-2.79,1.25-2.79,2.79s1.25,2.79,2.79,2.79l159.45.03,79.28,137.25c.15.48.41.9.77,1.23.54.63,1.32.99,2.12.99.38,0,.76-.08,1.12-.24l125.88.02,12.87,22.3-154.48.02L-4.7,886.21l-162.67-.03h0c-1.43,0-2.59,1.08-2.76,2.46,0,.04,0,.08-.01.12,0,.07-.02.14-.02.21,0,.05.01.09.01.13,0,.12.02.23.03.34,0,.04.01.09.02.13.15.76.61,1.45,1.34,1.87.44.25.91.37,1.38.37.17,0,.35-.02.51-.05h26.89s-13.72,23.75-13.72,23.75c-.77,1.33-.31,3.04,1.02,3.81.44.25.92.37,1.39.37.96,0,1.9-.5,2.42-1.4l15.33-26.54h25.76s-29.82,51.64-29.82,51.64c-.77,1.33-.31,3.04,1.02,3.81.44.25.92.37,1.39.37.96,0,1.9-.5,2.42-1.4l31.43-54.42h25.76s-45.92,79.51-45.92,79.51c-.77,1.33-.31,3.04,1.02,3.81.44.25.92.37,1.39.37.96,0,1.9-.5,2.42-1.4l47.53-82.3h25.77s-62.03,107.39-62.03,107.39c-.77,1.33-.31,3.04,1.02,3.81.44.25.92.37,1.39.37.96,0,1.9-.5,2.42-1.4l63.64-110.18H-11.15s-77.19,133.75-77.19,133.75h-.07l-81.36,140.86c-.77,1.33-.31,3.04,1.02,3.81.44.25.92.37,1.39.37.96,0,1.9-.5,2.42-1.39l79.75-138.07h29.7c.27.08.56.13.83.13s.57-.05.84-.13h30.5c.28.09.57.14.86.14s.59-.05.87-.15H8.86c.29.09.59.14.88.14s.6-.06.89-.15h30.41c.3.1.6.15.91.15s.62-.06.92-.16h30.44c.3.1.62.16.95.16.35,0,.69-.07,1.03-.2l154.95-.02-12.85,22.26-127.27.02c-.21,0-.41.03-.6.07l-161.83.03-81.36,140.86c-.77,1.33-.31,3.04,1.02,3.81.44.25.92.37,1.39.37.96,0,1.9-.5,2.42-1.4l79.75-138.07,159.45-.03c.21,0,.41-.03.6-.07l123.21-.02-12.88,22.32h-95.07c-.2.01-.4.04-.59.08l-161.85.03-81.36,140.86c-.77,1.33-.31,3.04,1.02,3.81.44.25.92.37,1.39.37.96,0,1.9-.5,2.42-1.4l79.75-138.07,159.45-.03c.2,0,.4-.02.59-.06h91.03s-12.88,22.3-12.88,22.3h-62.88c-.2,0-.4.03-.59.07l-161.84.03-81.36,140.86c-.77,1.33-.31,3.04,1.02,3.81.44.25.92.37,1.39.37.96,0,1.9-.5,2.42-1.39l79.75-138.07,159.45-.03c.2,0,.4-.02.59-.07h58.83s-12.88,22.3-12.88,22.3h-30.68c-.2,0-.39.03-.57.07l-161.86.03-81.36,140.86c-.77,1.33-.31,3.04,1.02,3.81.44.25.92.37,1.39.37.96,0,1.9-.5,2.42-1.39l79.75-138.07,159.45-.03c.2,0,.39-.02.57-.06h26.65s-12.91,22.37-12.91,22.37l-160.88.03-81.36,140.86c-.71,1.23-.37,2.77.74,3.61.05.04.1.07.15.11.04.03.08.07.13.09.02.01.04.02.05.03.08.05.17.09.25.12.01,0,.02.01.03.01.35.15.73.23,1.11.23.47,0,.95-.12,1.4-.38.59-.34.99-.86,1.21-1.45l13.47-23.32,13.71,23.75c.52.9,1.45,1.4,2.42,1.4.47,0,.95-.12,1.39-.37,1.33-.77,1.79-2.48,1.02-3.81l-15.32-26.54,12.89-22.31,29.8,51.64c.52.9,1.45,1.4,2.42,1.4.47,0,.95-.12,1.39-.37,1.33-.77,1.79-2.48,1.02-3.81l-31.41-54.43,12.88-22.31,45.9,79.52c.52.9,1.45,1.4,2.42,1.4.47,0,.95-.12,1.39-.37,1.33-.77,1.79-2.48,1.02-3.81l-47.51-82.31,12.89-22.31,61.99,107.41c.52.9,1.45,1.4,2.42,1.4.47,0,.95-.12,1.39-.37,1.33-.77,1.79-2.48,1.02-3.81l-63.6-110.2,12.88-22.3,78.1,135.23c.52.9,1.45,1.4,2.42,1.4.47,0,.95-.12,1.39-.37,1.33-.77,1.79-2.48,1.02-3.81L-1.49,1170.54h25.7s63.66,110.2,63.66,110.2c.52.89,1.45,1.4,2.42,1.4.47,0,.95-.12,1.39-.37,1.33-.77,1.79-2.48,1.02-3.81l-62.04-107.42h25.77s47.55,82.32,47.55,82.32c.52.89,1.45,1.4,2.42,1.4.47,0,.95-.12,1.39-.37,1.33-.77,1.79-2.48,1.02-3.81l-45.94-79.54h25.76s31.44,54.44,31.44,54.44c.52.9,1.45,1.4,2.42,1.4.47,0,.95-.12,1.39-.37,1.33-.77,1.79-2.48,1.02-3.81l-29.83-51.66h25.76s15.35,26.56,15.35,26.56c.52.89,1.45,1.39,2.42,1.39.47,0,.95-.12,1.39-.37,1.33-.77,1.79-2.48,1.02-3.81l-13.73-23.78h26.9c.13.01.25.02.38.02.02,0,.04,0,.06,0,.01,0,.02,0,.03,0h32.1s0,0,.01,0,0,0,.01,0h32.18s0,0,.01,0,0,0,.01,0h32.18s0,0,.01,0,0,0,.01,0h32.18s0,0,.01,0,0,0,.01,0h30.72l79.7,138.11c.52.9,1.45,1.4,2.42,1.4.47,0,.95-.12,1.39-.37,1.33-.77,1.79-2.48,1.02-3.81l-79.57-137.88c0-.08.02-.15.02-.23s-.02-.14-.02-.21l79.57-137.88c.13-.23.22-.48.28-.72l80.89-140.18-80.37-139.27,77.29-133.91,12.86,22.26-63.07,109.29c-1.01.84-1.31,2.28-.67,3.46.06.14.14.28.23.41l79.5,137.77-79.7,138.1c-.13.23-.22.48-.28.73l-80.89,140.18,81.3,140.89c.52.9,1.45,1.4,2.42,1.4.47,0,.95-.12,1.39-.37,1.33-.77,1.79-2.48,1.02-3.81l-79.69-138.1,79.69-138.1c.13-.23.22-.48.28-.73l80.89-140.17-80.4-139.32,61.19-106.03,12.89,22.31-46.97,81.39c-1.03.84-1.34,2.32-.66,3.51.05.1.1.19.16.29l79.55,137.84-79.69,138.1c-.13.23-.22.48-.28.72l-80.89,140.18,81.3,140.89c.52.9,1.45,1.4,2.42,1.4.47,0,.95-.12,1.39-.37,1.33-.77,1.79-2.48,1.02-3.81l-79.69-138.1,79.69-138.1c.13-.23.22-.48.28-.72l80.89-140.18-80.39-139.31,45.1-78.14,12.88,22.31-30.88,53.51c-1.02.84-1.33,2.3-.67,3.49.05.12.12.23.19.34l79.53,137.81-79.69,138.1c-.13.23-.22.48-.28.72l-80.89,140.18,81.3,140.89c.52.9,1.45,1.4,2.42,1.4.47,0,.95-.12,1.39-.37,1.33-.77,1.79-2.48,1.02-3.81l-79.69-138.1,79.69-138.1c.13-.23.22-.48.28-.72l80.89-140.18-80.39-139.31,29.01-50.26,12.88,22.31-14.78,25.61c-1.04.85-1.35,2.35-.66,3.55h0c.03.07.07.13.11.19l79.59,137.92-79.69,138.1c-.13.23-.22.48-.28.73l-80.89,140.18,81.31,140.89c.52.9,1.45,1.4,2.42,1.4.47,0,.95-.12,1.39-.37,1.33-.77,1.79-2.48,1.02-3.81l-79.7-138.1,79.7-138.1c.13-.23.22-.48.28-.73l80.89-140.17-80.39-139.31,12.91-22.38,13.3,23.02c.02.07.06.14.09.21.1.36.28.69.52.98l15.67,27.16c.1.25.23.49.41.71l15.72,27.24c.09.22.21.43.36.62l15.75,27.3c.09.2.19.39.33.57l15.8,27.38c.04.09.1.18.16.27l15.14,26.23-79.69,138.1c-.13.23-.22.48-.28.72l-80.89,140.18,81.3,140.89c.52.9,1.45,1.4,2.42,1.4.47,0,.95-.12,1.39-.37.04-.02.07-.05.11-.08.1-.06.19-.13.27-.2.04-.03.07-.06.11-.09.58-.51.95-1.25.95-2.08,0-.68-.25-1.29-.65-1.78l-13.46-23.32h27.42c1.54,0,2.79-1.24,2.79-2.78,0-1.54-1.25-2.79-2.79-2.79h-30.65s-12.88-22.32-12.88-22.32h59.62s0,0,0,0c1.54,0,2.79-1.25,2.79-2.79,0-1.54-1.25-2.79-2.79-2.79h-62.84s-12.88-22.32-12.88-22.32h91.82s0,.01,0,.01c1.54,0,2.79-1.25,2.79-2.79s-1.25-2.79-2.79-2.79l-95.04-.02-12.88-22.32,124.02.02h0c1.54,0,2.79-1.25,2.79-2.79s-1.25-2.79-2.79-2.79l-127.24-.02-12.87-22.3,155.04-.02s.02,0,.03.01c.35.15.73.23,1.11.23.47,0,.95-.12,1.39-.38.59-.34.99-.87,1.21-1.45l13.47-23.32,13.71,23.75c.52.9,1.45,1.4,2.42,1.4.47,0,.95-.12,1.39-.37,1.33-.77,1.79-2.48,1.02-3.81l-15.32-26.54,12.89-22.31,29.8,51.64c.52.9,1.45,1.4,2.42,1.4.47,0,.95-.12,1.39-.37,1.33-.77,1.79-2.48,1.02-3.81l-31.41-54.43,12.88-22.31,45.9,79.52c.52.9,1.45,1.4,2.42,1.4.47,0,.95-.12,1.39-.37,1.33-.77,1.79-2.48,1.02-3.81l-47.51-82.31,12.89-22.31,61.99,107.41c.52.9,1.45,1.4,2.42,1.4.47,0,.95-.12,1.39-.37,1.33-.77,1.79-2.48,1.02-3.81l-63.6-110.2,12.88-22.3,78.1,135.23c.52.89,1.45,1.4,2.42,1.4.47,0,.95-.12,1.39-.37.69-.4,1.14-1.04,1.31-1.76l15.27-26.44c.42-.38.69-.88.82-1.41l15.3-26.49c.41-.38.68-.87.8-1.39l15.32-26.52c.39-.37.66-.84.78-1.35l15.34-26.55c.38-.37.64-.83.76-1.32l15.01-25.99,158.21-.03c.36.16.75.24,1.12.24.96,0,1.9-.5,2.42-1.4l79.75-138.07,159.45-.03c.21,0,.41-.03.61-.07h26.69s-12.92,22.38-12.92,22.38l-160.94.03-80.42,139.22-161.09.03-81.36,140.86c-.77,1.33-.31,3.04,1.02,3.81.44.25.92.37,1.39.37.96,0,1.9-.5,2.42-1.4l79.75-138.07,158.21-.03c.36.16.75.24,1.13.24.96,0,1.9-.5,2.42-1.39l79.75-138.07,159.45-.03c1.28,0,2.34-.87,2.67-2.04l14.97-25.91h25.76s-29.02,50.26-29.02,50.26l-160.95.03-80.42,139.22-161.09.03-81.36,140.86c-.77,1.33-.31,3.04,1.02,3.81.44.25.92.37,1.39.37.96,0,1.9-.5,2.42-1.4l79.75-138.07,158.21-.03c.36.16.75.24,1.12.24.96,0,1.9-.5,2.42-1.4l79.75-138.07,159.45-.03c1.27,0,2.33-.85,2.67-2.01l31.08-53.82h25.76s-45.12,78.13-45.12,78.13l-160.95.03-80.42,139.22-161.09.03-81.36,140.86c-.77,1.33-.31,3.04,1.02,3.81.44.25.92.37,1.39.37.96,0,1.9-.5,2.42-1.39l79.75-138.07,158.21-.03c.36.16.75.24,1.12.24.96,0,1.9-.5,2.42-1.39l79.75-138.07,159.45-.03c1.27,0,2.33-.86,2.67-2.02l47.18-81.69h25.77s-61.23,106.01-61.23,106.01l-160.96.03-80.42,139.22-161.09.03-81.36,140.86c-.77,1.33-.31,3.04,1.02,3.81.44.25.92.37,1.39.37.96,0,1.9-.5,2.42-1.39l79.75-138.07,158.21-.03c.36.16.75.24,1.13.24.96,0,1.9-.5,2.42-1.4l79.75-138.07,159.45-.03c1.26,0,2.32-.84,2.66-1.99l63.3-109.59h25.75s-77.27,133.89-77.27,133.89l-161,.03-80.42,139.22-161.09.03-81.36,140.86c-.71,1.23-.37,2.77.74,3.61.05.04.1.07.15.11.05.03.08.07.13.1.02.01.04.02.06.03.08.05.16.08.24.12.01,0,.03.01.04.02.35.15.73.23,1.11.23.47,0,.95-.12,1.39-.38.59-.34.99-.86,1.21-1.45l13.47-23.32,13.71,23.75c.52.9,1.45,1.4,2.42,1.4.47,0,.95-.12,1.39-.37,1.33-.77,1.79-2.48,1.02-3.81l-15.32-26.54,12.88-22.31,29.8,51.64c.52.9,1.45,1.4,2.42,1.4.47,0,.95-.12,1.39-.37,1.33-.77,1.79-2.48,1.02-3.81l-31.41-54.43,12.88-22.31,45.89,79.52c.52.9,1.45,1.4,2.42,1.4.47,0,.95-.12,1.39-.37,1.34-.77,1.79-2.48,1.02-3.81l-47.51-82.31,12.89-22.31,61.99,107.41c.52.9,1.45,1.4,2.42,1.4.47,0,.95-.12,1.39-.37,1.34-.77,1.79-2.48,1.02-3.81l-63.6-110.2,12.88-22.3,78.1,135.23c.52.9,1.45,1.4,2.42,1.4.47,0,.95-.12,1.39-.37,1.33-.77,1.79-2.48,1.02-3.81l-78.11-135.24h25.7s63.66,110.2,63.66,110.2c.52.89,1.45,1.4,2.42,1.4.47,0,.95-.12,1.39-.37,1.33-.77,1.79-2.48,1.02-3.81l-62.04-107.42h25.77s47.55,82.32,47.55,82.32c.52.89,1.45,1.4,2.42,1.4.47,0,.95-.12,1.39-.37,1.33-.77,1.79-2.48,1.02-3.81l-45.94-79.54h25.76s31.44,54.44,31.44,54.44c.52.9,1.45,1.4,2.42,1.4.47,0,.95-.12,1.39-.37,1.33-.77,1.79-2.48,1.02-3.81l-29.83-51.66h25.76s15.35,26.56,15.35,26.56c.52.9,1.45,1.39,2.42,1.39.47,0,.95-.12,1.39-.37,1.33-.77,1.79-2.48,1.02-3.81l-13.73-23.78h26.24s.03.01.05.02c0,0,.01,0,.02.01.35.15.73.23,1.11.23.47,0,.95-.12,1.4-.38.59-.34.99-.86,1.21-1.45l13.47-23.32,13.71,23.75c.52.9,1.45,1.4,2.42,1.4.47,0,.95-.12,1.39-.37,1.34-.77,1.79-2.48,1.02-3.81l-15.32-26.54,12.88-22.31,29.8,51.64c.52.9,1.45,1.4,2.42,1.4.47,0,.95-.12,1.39-.37,1.33-.77,1.79-2.48,1.02-3.81l-31.41-54.43,12.88-22.31,45.9,79.52c.52.9,1.45,1.4,2.42,1.4.47,0,.95-.12,1.39-.37,1.34-.77,1.79-2.48,1.02-3.81l-47.51-82.31,12.89-22.31,61.99,107.41c.52.9,1.45,1.4,2.42,1.4.47,0,.95-.12,1.39-.37,1.34-.77,1.79-2.48,1.02-3.81l-63.6-110.2,12.88-22.29,77.77,134.66c.12.32.3.61.53.86.02.03.04.05.06.08.02.02.03.04.05.06.54.62,1.31.97,2.11.97.3,0,.61-.06.91-.16l155.12-.02-12.85,22.26-127.27.02c-1.54,0-2.79,1.25-2.79,2.79s1.25,2.79,2.79,2.79l124.05-.02-12.88,22.32h-95.07c-1.54.01-2.79,1.26-2.79,2.81s1.25,2.79,2.79,2.79h91.85s-12.88,22.3-12.88,22.3h-62.88c-1.54,0-2.79,1.26-2.79,2.8s1.25,2.79,2.79,2.79h59.65s-12.88,22.31-12.88,22.31h-30.68c-1.54,0-2.79,1.26-2.79,2.8s1.25,2.79,2.79,2.79h27.46s-13.73,23.79-13.73,23.79c-.77,1.33-.31,3.04,1.02,3.81.44.25.92.37,1.39.37.96,0,1.9-.5,2.42-1.4l81.3-140.89-80.37-139.28,77.29-133.91,12.86,22.26-63.07,109.29c-1.01.84-1.31,2.28-.67,3.47.06.13.13.25.2.36l79.52,137.8-79.7,138.1c-.77,1.33-.31,3.04,1.02,3.81.44.25.92.37,1.39.37.96,0,1.9-.5,2.42-1.4l81.3-140.89-80.4-139.32,61.19-106.03,12.89,22.31-46.97,81.39c-1.03.85-1.33,2.33-.66,3.52.04.08.09.16.14.24l79.57,137.88-79.69,138.1c-.77,1.33-.31,3.04,1.02,3.81.44.25.92.37,1.39.37.96,0,1.9-.5,2.42-1.4l81.3-140.89-80.39-139.31,45.1-78.14,12.88,22.31-30.88,53.51c-1.03.85-1.33,2.32-.66,3.51.04.09.1.18.15.26l79.56,137.87-79.7,138.1c-.77,1.33-.31,3.04,1.02,3.81.44.25.92.37,1.39.37.96,0,1.9-.5,2.42-1.4l81.3-140.89-80.39-139.31,29.01-50.26,12.88,22.31-14.78,25.61c-1.04.85-1.35,2.35-.66,3.55h0c.02.05.04.09.07.13l79.62,137.98-79.7,138.1c-.77,1.33-.31,3.04,1.02,3.81.44.25.92.37,1.39.37.96,0,1.9-.5,2.42-1.4l81.3-140.89-80.39-139.31,12.91-22.38,13.3,23.02c.02.07.06.14.08.21.02.04.04.08.06.13.03.07.06.15.1.23l79.7,138.1-79.7,138.1c-.77,1.33-.31,3.04,1.02,3.81.44.25.92.37,1.39.37.96,0,1.9-.5,2.42-1.4l79.7-138.11h30.58s0,0,.01,0,0,0,.01,0h32.18s0,0,.01,0,0,0,.01,0h32.18s0,0,.01,0,0,0,.01,0h32.18s0,0,.01,0,0,0,.01,0h32.18s0,0,.01,0c.15.02.29.04.44.04s.3-.02.45-.04h1.03c1.54,0,2.79-1.25,2.79-2.79,0-.45-.12-.87-.3-1.24l78.21-135.39h29.7c.27.08.56.13.83.13s.57-.05.84-.13h30.5c.28.09.57.14.87.14s.59-.05.87-.15h30.45c.29.09.59.14.88.14s.6-.06.89-.15h30.41c.3.1.6.15.91.15s.62-.06.92-.16h30.44c.3.1.62.16.95.16.47,0,.95-.12,1.39-.37.91-.52,1.4-1.48,1.38-2.46,0-.04.01-.08.01-.13,0-.75-.3-1.43-.78-1.93l-80.96-140.15-161.29-.03-80.56-139.47-160.95-.03-80.56-139.47-158.06-.03,12.87-22.31,158.06.03,79.4,137.45c.34,1.16,1.4,2.01,2.67,2.01l159.45.03,79.75,138.07c.52.89,1.45,1.4,2.42,1.4.04,0,.08,0,.12,0,.04,0,.07.01.11.01l159.45.03,79.75,138.07c.52.89,1.45,1.4,2.42,1.4.47,0,.95-.12,1.39-.37,1.33-.77,1.79-2.48,1.02-3.81l-81.36-140.86-161.29-.03-80.56-139.47-160.95-.03-80.56-139.47-158.07-.03,12.87-22.31,158.07.03,79.4,137.45c.34,1.16,1.4,2.01,2.67,2.01l159.45.03,79.75,138.07c.52.89,1.45,1.4,2.42,1.4.04,0,.08,0,.12,0,.04,0,.07.01.11.01l159.45.03,79.75,138.07c.52.89,1.45,1.4,2.42,1.4.47,0,.95-.12,1.39-.37,1.33-.77,1.79-2.48,1.02-3.81l-81.36-140.86-161.29-.03-80.56-139.47-160.95-.03-80.56-139.47-158.07-.03,12.87-22.31,158.08.03,79.4,137.45c.34,1.16,1.4,2.01,2.67,2.01l159.45.03,79.75,138.07c.52.89,1.45,1.39,2.42,1.39.04,0,.08,0,.12,0,.04,0,.07.01.11.01l159.45.03,79.75,138.07c.52.89,1.45,1.4,2.42,1.4.47,0,.95-.12,1.39-.37,1.33-.77,1.79-2.48,1.02-3.81l-81.36-140.86-161.29-.03-80.56-139.47-160.95-.03-80.56-139.47-158.08-.03,12.87-22.31,158.09.03,79.4,137.45c.34,1.16,1.4,2.01,2.67,2.01l159.45.03,79.75,138.07c.52.89,1.45,1.4,2.42,1.4.04,0,.09,0,.13,0,.04,0,.07.01.11.01l159.45.03,79.75,138.07c.52.89,1.45,1.4,2.42,1.4.47,0,.95-.12,1.39-.37,1.33-.77,1.79-2.48,1.02-3.81l-81.36-140.86-161.29-.03-80.56-139.47-160.95-.03-80.56-139.47-158.09-.03,12.87-22.31,158.1.03,15.13,26.2c.08.17.17.34.29.49l15.81,27.38c.09.2.19.38.32.56l15.76,27.28c.09.22.21.44.36.63l15.73,27.24c.1.24.22.46.38.66l15.61,27.02c.34,1.16,1.4,2.01,2.67,2.01l159.45.03,79.75,138.07c.52.89,1.45,1.4,2.42,1.4.04,0,.08,0,.12,0,.04,0,.07.01.11.01l159.45.03,79.75,138.07c.52.89,1.45,1.4,2.42,1.4.47,0,.95-.12,1.39-.37,1.33-.77,1.79-2.48,1.02-3.81l-80.3-139.01c-.06-.2-.14-.41-.25-.6l-78.11-135.24h25.7s63.66,110.2,63.66,110.2c.52.89,1.45,1.39,2.42,1.39.47,0,.95-.12,1.39-.37,1.33-.77,1.79-2.48,1.02-3.81l-62.04-107.42h25.77s47.55,82.32,47.55,82.32c.52.89,1.45,1.4,2.42,1.4.47,0,.95-.12,1.39-.37,1.33-.77,1.79-2.48,1.02-3.81l-45.94-79.54h25.76s31.44,54.44,31.44,54.44c.52.9,1.45,1.4,2.42,1.4.47,0,.95-.12,1.39-.37,1.33-.77,1.79-2.48,1.02-3.81l-29.83-51.66h25.76s15.35,26.56,15.35,26.56c.52.9,1.45,1.4,2.42,1.4.47,0,.95-.12,1.39-.37,1.33-.77,1.79-2.48,1.02-3.81l-13.73-23.78h27.47c1.54,0,2.79-1.26,2.79-2.8s-1.25-2.79-2.79-2.79l-162.67.03-79.09,136.92-12.88-22.3,79.09-136.92,159.45-.03c1.54,0,2.79-1.25,2.79-2.79s-1.25-2.79-2.79-2.79l-162.67.03-79.09,136.92-12.88-22.3,79.09-136.93,159.45-.03c1.54,0,2.79-1.25,2.79-2.79s-1.25-2.79-2.79-2.79l-162.67.03-79.09,136.93-12.88-22.3,79.1-136.94,159.45-.03c1.54,0,2.79-1.25,2.79-2.79s-1.25-2.79-2.79-2.79l-162.67.03-79.1,136.94-12.88-22.3,79.1-136.94,159.45-.03c1.54,0,2.79-1.25,2.79-2.79s-1.25-2.79-2.79-2.79l-162.67.03-79.1,136.94-12.88-22.3,79.11-136.95,159.45-.03c1.54,0,2.79-1.25,2.79-2.79,0-.35-.07-.67-.19-.98,0,0,0-.01,0-.02-.03-.07-.06-.14-.1-.21-.04-.1-.08-.2-.13-.3l-78.11-135.24h25.7s63.66,110.2,63.66,110.2c.52.9,1.45,1.4,2.42,1.4.47,0,.95-.12,1.39-.37,1.33-.77,1.79-2.48,1.02-3.81l-62.04-107.42h25.77s47.55,82.32,47.55,82.32c.52.9,1.45,1.4,2.42,1.4.47,0,.95-.12,1.39-.37,1.33-.77,1.79-2.48,1.02-3.81l-45.94-79.54h25.76s31.44,54.44,31.44,54.44c.52.9,1.45,1.39,2.42,1.39.47,0,.95-.12,1.39-.37,1.33-.77,1.79-2.48,1.02-3.81l-29.83-51.66h25.76s15.35,26.56,15.35,26.56c.52.89,1.45,1.39,2.42,1.39.47,0,.95-.12,1.39-.37,1.33-.77,1.79-2.48,1.02-3.81l-13.73-23.78h27.47c1.54,0,2.79-1.26,2.79-2.8ZM1619.82,29.63l11.29,19.56h-22.59l11.3-19.56ZM1635.93,1.74l27.39,47.45h-25.76l-14.51-25.14,12.88-22.31ZM1652.04-26.15l43.48,75.33h-25.76l-30.61-53.03,12.88-22.31ZM1668.15-54.04l59.57,103.23h-25.76l-46.7-80.91,12.89-22.31ZM1684.25-81.91l75.72,131.1h-25.8l-62.79-108.81,12.88-22.3ZM1714.78-84.72l63.02,109.11-12.86,22.26-75.87-131.36h25.7ZM1746.99-84.73l46.91,81.23-12.88,22.31-59.8-103.53h25.77ZM1779.2-84.73l30.81,53.36-12.88,22.3-43.69-75.65h25.76ZM1811.4-84.74l14.72,25.48-12.88,22.31-27.59-47.78h25.76ZM1829.34-64.84l-11.5-19.9h22.99s-11.5,19.9-11.5,19.9ZM1341.3,612.77l-27.39,47.42-12.89-22.31,14.51-25.12h25.76ZM1373.5,612.77l-43.49,75.29-12.88-22.3,30.61-53h25.76ZM1405.71,612.78l-59.59,103.17-12.88-22.31,46.71-80.87h25.77ZM1437.9,612.79l-75.65,131.08-12.9-22.34,62.81-108.75h25.75ZM1455.6,637.82l-62.86,108.93h-25.71s75.71-131.19,75.71-131.19l12.86,22.26ZM1471.71,665.72l-46.77,81.04h-25.76s59.64-103.35,59.64-103.35l12.89,22.31ZM1487.82,693.6l-30.68,53.16h-25.75s43.55-75.47,43.55-75.47l12.88,22.31ZM1503.93,721.49l-14.59,25.28h-25.76s27.46-47.59,27.46-47.59l12.88,22.31ZM1518.53,746.78h-22.76s11.37-19.71,11.37-19.71l11.38,19.71ZM1582.81,752.27l-27.39,47.42-12.89-22.31,14.51-25.12h25.76ZM1615.01,752.27l-43.49,75.29-12.88-22.3,30.61-53h25.76ZM1647.22,752.28l-59.59,103.17-12.88-22.31,46.71-80.87h25.77ZM1679.41,752.29l-75.65,131.08-12.9-22.34,62.81-108.75h25.75ZM1697.11,777.32l-63.07,109.29c-1.01.83-1.31,2.28-.67,3.46.06.14.14.28.23.41l79.5,137.77-78.89,136.71h-25.76l78.89-136.71-80.37-139.27,77.29-133.91,12.86,22.26ZM1713.22,805.22l-46.97,81.39c-1.03.84-1.33,2.32-.66,3.51.05.1.1.19.16.29l79.55,137.84-78.89,136.71h-25.76l78.89-136.71-80.4-139.32,61.19-106.03,12.89,22.31ZM1729.33,833.1l-30.88,53.51c-1.02.84-1.33,2.31-.66,3.5.05.11.11.21.17.31l79.54,137.83-78.89,136.71h-25.76l78.89-136.71-80.39-139.31,45.1-78.14,12.88,22.31ZM1745.44,860.99l-14.78,25.61c-1.04.85-1.35,2.35-.66,3.55h0c.03.06.06.11.09.16l79.6,137.94-78.89,136.71h-25.76l78.89-136.71-80.39-139.31,29.01-50.26,12.88,22.31ZM1761.96,889.59c.06.19.14.38.24.56l79.7,138.1-78.89,136.71h-25.76l78.89-136.71-80.39-139.3,12.91-22.38,13.3,23.02ZM1824.66,891.77l-27.55,47.71-12.88-22.32,14.67-25.4h25.76ZM1856.87,891.77l-43.66,75.6-12.87-22.31,30.78-53.29h25.76ZM1889.08,891.78l-59.77,103.49-12.88-22.32,46.89-81.18h25.77ZM1921.27,891.79l-75.85,131.41-12.9-22.35,63-109.07h25.75ZM1938.96,916.82l-62.73,108.7h-25.71s75.59-130.96,75.59-130.96l12.86,22.26ZM1955.08,944.72l-46.63,80.8h-25.77s59.51-103.12,59.51-103.12l12.89,22.31ZM1971.18,972.6l-30.54,52.91h-25.76s43.41-75.22,43.41-75.22l12.88,22.31ZM1987.29,1000.49l-14.44,25.02h-25.77s27.32-47.32,27.32-47.32l12.88,22.31ZM2001.74,1025.5h-22.44s11.22-19.43,11.22-19.43l11.23,19.43ZM1781.01,911.58l-11.44-19.83h22.89s-11.45,19.83-11.45,19.83ZM1576.2,1114.67h54.83s-12.88,22.31-12.88,22.31h-29.08s-12.88-22.31-12.88-22.31ZM1560.1,1086.79h87.02s-12.88,22.3-12.88,22.3h-61.27s-12.87-22.3-12.87-22.3ZM1544.01,1058.89l119.21-.02-12.88,22.32h-93.46s-12.88-22.3-12.88-22.3ZM1527.94,1031.05l151.35-.02-12.85,22.26-125.65.02-12.85-22.26ZM1444.36,886.21l-160.95-.03-80.56-139.47-158.06-.03,12.87-22.31,158.06.03,79.4,137.45c.34,1.16,1.4,2.01,2.67,2.01l159.45.03,79.28,137.25c.15.47.41.89.76,1.22.54.64,1.32.99,2.13.99.38,0,.76-.08,1.12-.24l125.88.02,12.87,22.3-154.48.02-80.44-139.26ZM1222.07,886.26l27.46-47.58,12.89,22.31-14.58,25.26h-25.77ZM1189.87,886.26l43.56-75.47,12.88,22.31-30.68,53.16h-25.76ZM1157.66,886.27l59.65-103.37,12.89,22.31-46.78,81.05h-25.77ZM1125.5,886.28l75.73-131.21,12.86,22.26-62.87,108.95h-25.71ZM980.49,1025.51l78.92-136.76-80.5-139.5,80.5-139.5-80.39-139.31,29.01-50.26,12.89,22.31-14.78,25.61c-1.04.85-1.35,2.35-.66,3.55h0c.02.06.06.1.08.15l79.61,137.95-79.7,138.1s-.03.08-.05.11c-.03.07-.06.13-.09.2-.04.1-.08.2-.11.3-.02.07-.03.14-.05.22-.02.1-.04.2-.05.3,0,.09,0,.17,0,.26s0,.17,0,.26c0,.1.03.2.05.3.02.07.03.15.05.22.03.1.07.2.11.3.03.07.06.14.09.2.02.04.03.08.05.11l79.7,138.1-78.92,136.76h-25.76ZM948.28,1025.52l78.93-136.77-80.5-139.5,80.5-139.5-80.39-139.31,45.1-78.14,12.88,22.31-30.88,53.5c-1.02.84-1.33,2.31-.67,3.5.05.11.11.22.18.32l79.54,137.82-79.7,138.1s-.03.08-.05.11c-.03.07-.06.13-.09.2-.04.1-.08.2-.11.3-.02.07-.03.14-.05.22-.02.1-.04.2-.05.3,0,.09,0,.17,0,.26s0,.17,0,.26c0,.1.03.2.05.3.02.07.03.15.05.22.03.1.07.2.11.3.03.07.06.14.09.2.02.04.03.08.05.11l79.7,138.1-78.92,136.76h-25.76ZM916.08,1025.52l78.93-136.77-80.5-139.5,80.5-139.5-80.4-139.32,61.19-106.03,12.89,22.31-46.97,81.39c-1.03.84-1.34,2.32-.66,3.51.05.1.1.19.16.29l79.55,137.85-79.69,138.1s-.03.08-.05.11c-.04.07-.06.14-.09.21-.04.1-.08.2-.11.3-.02.07-.03.15-.05.22-.02.1-.04.2-.05.3,0,.09,0,.17,0,.26,0,.09,0,.17,0,.26,0,.1.03.2.05.3.02.07.03.15.05.22.03.1.07.2.11.3.03.07.06.14.09.2.02.04.03.08.05.11l79.69,138.1-78.93,136.77h-25.76ZM883.88,1025.53l78.93-136.78-80.5-139.5,80.5-139.5-80.37-139.27,77.29-133.91,12.86,22.26-63.07,109.29c-1.01.83-1.31,2.28-.67,3.46.06.14.14.28.22.41l79.5,137.77-79.7,138.1s-.03.08-.05.11c-.04.07-.06.14-.09.21-.04.1-.08.2-.11.3-.02.07-.03.15-.05.22-.02.1-.04.2-.05.3,0,.09,0,.17,0,.26,0,.09,0,.17,0,.26,0,.1.03.2.05.3.02.07.03.15.05.22.03.1.07.2.11.3.03.07.06.14.09.21.02.04.03.08.05.11l79.7,138.1-78.93,136.78h-25.76ZM863.06,1050.74l-11.25-19.48h22.51s-11.25,19.48-11.25,19.48ZM846.95,1078.62l-27.35-47.36h25.76s14.47,25.05,14.47,25.05l-12.88,22.31ZM830.85,1106.5l-43.45-75.23h25.76s30.57,52.93,30.57,52.93l-12.88,22.3ZM814.74,1134.39l-59.55-103.11h25.77s46.67,80.8,46.67,80.8l-12.88,22.31ZM798.66,1162.22l-75.62-130.94h25.7s62.77,108.68,62.77,108.68l-12.86,22.26ZM636.18,1164.95l-154.65.02,12.85-22.26,126.22-.02c.32.12.64.18.97.18.96,0,1.9-.5,2.42-1.4l79.75-138.07,159.45-.03c.45,0,.87-.12,1.25-.31h25.98s-13.05,22.61-13.05,22.61l-160.74.03-80.43,139.24ZM608.71,833.15l46.71-80.88h25.77s-59.6,103.2-59.6,103.2l-12.88-22.32ZM592.61,805.26l30.6-52.99h25.76s-43.49,75.3-43.49,75.3l-12.87-22.31ZM576.51,777.36l14.5-25.1h25.76s-27.38,47.42-27.38,47.42l-12.88-22.32ZM562.02,752.26h22.55s-11.28,19.53-11.28,19.53l-11.27-19.53ZM558.88,746.67l-80.56-139.47-160.97-.03-77.33-133.89h25.7s63.44,109.84,63.44,109.84c.24.58.66,1.06,1.2,1.37.05.03.1.05.15.08.07.03.13.07.2.1.34.14.71.22,1.08.22.08,0,.16,0,.24-.02l159.16.03,79.4,137.45c.34,1.16,1.4,2.01,2.67,2.01l159.45.03,79.28,137.25c.15.48.41.9.77,1.23.54.63,1.32.98,2.12.98.38,0,.76-.08,1.12-.24l125.88.02,12.87,22.3-154.48.02-80.44-139.26-160.95-.03ZM255.99,1164.96l78.89-136.71-80.5-139.5,80.5-139.5-81.15-140.63s0-.02-.01-.03l-47.51-82.31,12.89-22.31,61.81,107.1s.02.06.04.09l79.69,138.1-79.69,138.1s-.03.08-.05.11c-.03.07-.06.14-.09.2-.04.1-.08.2-.11.3-.02.07-.03.15-.05.22-.02.1-.04.2-.05.3,0,.09,0,.17,0,.26s0,.17,0,.26c0,.1.03.2.05.3.02.07.03.15.05.22.03.1.07.2.11.3.03.07.06.14.09.2.02.04.03.08.05.11l79.69,138.1-78.89,136.71h-25.76ZM223.79,1164.96l78.89-136.71-80.5-139.5,80.5-139.5-81.15-140.62s-.01-.03-.02-.05l-31.41-54.43,12.88-22.31,45.75,79.26s0,.02.01.03l79.69,138.1-79.69,138.1s-.03.07-.05.11c-.04.07-.06.14-.09.21-.04.1-.08.2-.11.3-.02.07-.03.15-.05.22-.02.1-.04.2-.05.3,0,.09,0,.17,0,.26s0,.17,0,.26c0,.1.03.2.05.3.02.07.03.15.05.22.03.1.07.2.11.3.03.07.06.14.09.21.02.04.03.08.05.11l79.69,138.1-78.89,136.71h-25.76ZM191.59,1164.96l78.89-136.71-80.5-139.5,80.5-139.5-81.31-140.89s0,0,0,0l-15.18-26.31,12.89-22.31,29.65,51.37s.01.03.02.04l79.69,138.1-79.69,138.1s-.03.07-.05.11c-.04.07-.06.14-.09.21-.04.1-.08.2-.11.3-.02.07-.03.15-.05.22-.02.1-.04.2-.05.3,0,.09,0,.17,0,.26s0,.17,0,.26c0,.1.03.2.05.3.02.07.03.15.05.22.03.1.07.2.11.3.03.07.06.14.09.21.02.04.03.08.05.11l79.69,138.1-78.89,136.71h-25.76ZM159.39,1164.96l78.89-136.71-80.5-139.5,80.5-139.5-80.4-139.32,12.88-22.31,13.71,23.75s0,0,0,0l79.56,137.86-79.7,138.1s-.03.07-.05.11c-.04.07-.06.14-.09.21-.04.1-.08.2-.11.3-.02.07-.03.15-.05.22-.02.1-.04.2-.05.3,0,.09,0,.17,0,.26s0,.17,0,.26c0,.1.03.2.05.3.02.07.03.15.05.22.03.1.07.2.11.3.03.07.06.14.09.21.02.04.03.08.05.11l79.7,138.1-78.89,136.71h-25.76ZM127.15,835.67h54.82s-12.88,22.31-12.88,22.31h-29.06s-12.89-22.31-12.89-22.31ZM111.04,807.79h87.02s-12.88,22.3-12.88,22.3h-61.26s-12.88-22.3-12.88-22.3ZM94.93,779.89l119.23-.02-12.88,22.32h-93.47s-12.89-22.3-12.89-22.3ZM78.85,752.05l151.39-.02-12.85,22.26-125.68.02-12.86-22.26ZM43.65,746.77l-62.84-108.89,12.88-22.3,75.77,131.19h-25.8ZM11.44,746.77l-46.74-80.99,12.89-22.31,59.62,103.31H11.44ZM-20.76,746.76l-30.65-53.1,12.88-22.31,43.52,75.41h-25.76ZM-52.97,746.75l-14.54-25.21,12.89-22.31,27.43,47.52h-25.77ZM-70.74,727.12l11.32,19.63h-22.66s11.33-19.63,11.33-19.63ZM24.22,612.78l63.35,109.68c.08.18.17.34.29.49l.02.03c.52.89,1.45,1.39,2.42,1.39.39,0,.79-.09,1.16-.26l125.9.02,12.87,22.3-154.5.02L-1.49,612.79h25.7ZM56.43,612.77l47.21,81.75c.08.2.2.39.32.56v.02c.53.89,1.47,1.4,2.43,1.4.39,0,.79-.09,1.17-.26l93.69.02,12.88,22.32-122.38-.02-61.09-105.77h25.77ZM88.63,612.77l31.11,53.87c.08.2.2.38.32.56v.02c.53.9,1.47,1.4,2.43,1.4.39,0,.79-.09,1.16-.26h61.5s12.88,22.32,12.88,22.32h-90.18s-44.98-77.9-44.98-77.9h25.76ZM120.84,612.76l15,25.97c.09.21.2.4.34.58h0c.52.91,1.45,1.41,2.42,1.41.39,0,.79-.09,1.17-.26h29.29s12.88,22.32,12.88,22.32h-57.99s-28.88-50.01-28.88-50.01h25.76ZM165.84,634.88h-25.78s-12.78-22.12-12.78-22.12h25.79s12.77,22.12,12.77,22.12ZM165.87,863.56l-11.3,19.59-11.31-19.58h22.61ZM367.08,1028.25l-80.5-139.5,80.5-139.5-81.12-140.58s-.02-.06-.04-.09l-63.6-110.2,12.88-22.3,77.75,134.62s.03.06.04.08c.1.36.29.7.53,1l15.67,27.15c.1.26.24.5.41.71l15.71,27.23c.09.22.21.44.36.63l15.75,27.29c.09.2.2.4.33.58l15.79,27.37c.05.11.11.2.17.3l15.12,26.2-15.18,26.3c-.11.16-.21.32-.29.5l-15.79,27.37c-.13.18-.24.36-.33.57l-15.74,27.28c-.15.2-.27.41-.37.64l-15.72,27.24c-.16.2-.29.43-.38.67l-15.89,27.54s-.03.08-.05.11c-.03.07-.06.14-.09.2-.04.1-.08.2-.11.3-.02.07-.03.15-.05.22-.02.1-.04.2-.05.3,0,.09,0,.17,0,.26h0s0,0,0,.01c0,0,0,0,0,0,0,.08,0,.16,0,.24,0,.09.03.19.05.28,0,.02,0,.04.01.06.01.06.03.12.04.18.03.09.06.17.09.26.01.03.03.07.04.1.02.05.04.1.07.15.02.04.03.08.05.11l79.69,138.1-78.89,136.71h-25.76l78.89-136.71ZM367.2,693.65l46.71-80.88h25.77s-59.6,103.2-59.6,103.2l-12.88-22.32ZM363.98,688.07l-12.87-22.31,30.6-52.99h25.76s-43.49,75.3-43.49,75.3ZM347.88,660.18l-12.88-22.32,14.5-25.1h25.76s-27.38,47.42-27.38,47.42ZM331.78,632.28l-11.27-19.53h22.55s-11.28,19.53-11.28,19.53ZM384.74,1003.06h22.64s-11.32,19.61-11.32,19.61l-11.32-19.61ZM410.6,997.48h-29.08s-12.88-22.31-12.88-22.31h54.83s-12.88,22.31-12.88,22.31ZM426.7,969.58h-61.27s-12.87-22.3-12.87-22.3h87.02s-12.88,22.3-12.88,22.3ZM442.8,941.69h-93.46s-12.88-22.3-12.88-22.3l119.21-.02-12.88,22.32ZM458.9,913.79l-125.65.02-12.85-22.26,151.35-.02-12.85,22.26ZM320.38,885.97l12.89-22.35,125.59.02,12.87,22.3-151.35.02ZM336.5,858.05l12.88-22.31,93.39.02,12.88,22.32-119.15-.02ZM352.59,830.15l12.87-22.31h61.2s12.88,22.32,12.88,22.32h-86.95ZM368.68,802.27l12.88-22.31h29.01s12.88,22.32,12.88,22.32h-54.76ZM384.78,774.38l11.28-19.56,11.29,19.56h-22.57ZM383.3,721.55l62.82-108.77h25.75s-75.67,131.12-75.67,131.12l-12.9-22.35ZM297.94,473.27l47.33,81.94c.24.61.69,1.1,1.25,1.41.01,0,.02.01.03.02.1.05.19.1.3.14.14.06.28.1.43.13.01,0,.03,0,.05,0,.19.04.39.07.59.07.07,0,.14,0,.22-.01l159.18.03,79.4,137.45c.34,1.16,1.4,2.01,2.67,2.01l159.45.03,79.28,137.25c.15.47.4.88.75,1.2.54.65,1.33,1.01,2.14,1.01.38,0,.77-.08,1.13-.25l93.67.02,12.88,22.32-122.31-.02-80.42-139.22-160.95-.03-80.56-139.47-161.02-.03-61.23-106.01h25.77ZM330.14,473.27l31.22,54.07c.24.6.68,1.09,1.24,1.4.02.01.04.02.07.04.09.05.17.09.27.13.14.06.29.1.44.14,0,0,.02,0,.03,0,.2.04.4.07.6.07.08,0,.15,0,.23-.01l159.17.03,79.4,137.45c.34,1.16,1.4,2.01,2.67,2.01l159.45.03,79.28,137.25c.15.47.41.89.76,1.21.54.64,1.33,1,2.13,1,.38,0,.76-.08,1.13-.24h61.48s12.88,22.32,12.88,22.32h-90.11s-80.42-139.23-80.42-139.23l-160.95-.03-80.56-139.47-161.02-.03-45.12-78.13h25.76ZM362.34,473.26l15.11,26.16c.3.77.92,1.37,1.71,1.63.09.03.18.06.27.08.04,0,.07.01.11.02.18.04.37.06.56.06.06,0,.12,0,.17-.01l159.22.03,79.4,137.46c.34,1.16,1.4,2.01,2.67,2.01l159.45.03,79.29,137.26c.14.45.39.86.73,1.18.54.66,1.34,1.02,2.16,1.02.38,0,.77-.08,1.14-.25h29.27s12.88,22.32,12.88,22.32h-57.92s-80.42-139.23-80.42-139.23l-160.95-.03-80.56-139.47-161.02-.03-29.02-50.25h25.76ZM412.28,448.13l11.32,19.63h-22.66s11.33-19.63,11.33-19.63ZM428.38,420.24l27.43,47.52h-25.77s-14.54-25.21-14.54-25.21l12.88-22.31ZM444.49,392.35l43.52,75.41h-25.76s-30.65-53.1-30.65-53.1l12.88-22.31ZM460.6,364.46l59.62,103.31h-25.77s-46.74-81-46.74-81l12.89-22.31ZM476.7,336.59l75.77,131.19h-25.8s-62.84-108.89-62.84-108.89l12.88-22.3ZM507.24,333.78l63.45,109.85c.23.58.66,1.05,1.19,1.36.05.03.11.06.16.09.06.03.12.06.19.09.34.14.71.22,1.08.22.08,0,.16,0,.24-.02l159.16.03,79.28,137.25c.15.48.41.9.77,1.23.54.63,1.32.99,2.12.99.38,0,.76-.08,1.12-.24l125.88.02,12.87,22.3-154.48.02-80.44-139.26-160.98-.03-77.33-133.89h25.7ZM539.45,333.77l47.33,81.94c.24.6.68,1.09,1.25,1.4.02,0,.03.02.05.03.09.05.18.1.28.14.14.06.29.1.43.13.01,0,.03,0,.04,0,.19.04.39.07.59.07.07,0,.14,0,.22-.01l159.18.03,79.28,137.25c.15.47.4.88.75,1.21.54.65,1.33,1,2.14,1,.38,0,.76-.08,1.13-.24h93.67s12.88,22.33,12.88,22.33l-122.31-.02-80.42-139.22-161.02-.03-61.23-106.01h25.77ZM571.65,333.77l31.23,54.07c.24.59.68,1.08,1.23,1.39.03.02.06.03.09.05.08.04.16.09.25.12.14.06.3.1.45.14,0,0,.01,0,.02,0,.2.04.4.07.6.07.08,0,.15,0,.23-.01l159.17.03,79.28,137.25c.15.47.4.89.76,1.21.54.64,1.33,1,2.14,1,.38,0,.76-.08,1.13-.24h61.48s12.88,22.32,12.88,22.32h-90.11s-80.42-139.23-80.42-139.23l-161.02-.03-45.12-78.13h25.76ZM603.85,333.76l15.12,26.17c.3.76.91,1.35,1.69,1.62.1.04.2.07.3.09.04,0,.07.01.11.02.18.04.37.06.56.06.06,0,.12,0,.17-.01l159.22.03,79.29,137.26c.14.45.39.86.73,1.18.54.66,1.34,1.02,2.16,1.02.38,0,.77-.08,1.14-.25h29.27s12.88,22.32,12.88,22.32h-57.92s-80.42-139.23-80.42-139.23l-161.02-.03-29.02-50.25h25.76ZM637.06,333.75c.2.04.4.07.61.07l159.45.03,15.13,26.19c.08.19.18.37.31.53l15.79,27.34c.09.2.19.39.33.57l15.75,27.27c.1.23.21.44.37.64l15.73,27.23c.1.24.22.46.38.67l15.49,26.82c.11.35.29.67.51.94l13.46,23.32h-25.72s-80.41-139.22-80.41-139.22l-161.01-.03-12.92-22.37h26.76ZM816.15,305.87l158.06.03,79.28,137.25c.15.47.41.89.76,1.22.54.64,1.32.99,2.13.99.38,0,.76-.08,1.12-.24l125.88.02,12.87,22.3-154.48.02-80.44-139.26-158.06-.03,12.87-22.31ZM832.25,277.98l158.07.03,79.28,137.25c.14.47.4.88.75,1.2.54.65,1.33,1.01,2.14,1.01.38,0,.76-.08,1.13-.24h93.67s12.88,22.33,12.88,22.33l-122.31-.02-80.42-139.22-158.07-.03,12.87-22.31ZM848.34,250.1l158.08.03,79.28,137.25c.15.47.4.88.75,1.21.54.64,1.33,1,2.14,1,.38,0,.76-.08,1.13-.24h61.48s12.88,22.32,12.88,22.32h-90.11s-80.42-139.23-80.42-139.23l-158.07-.03,12.87-22.31ZM864.43,222.21l158.09.03,79.29,137.26c.14.45.39.86.73,1.18.54.66,1.34,1.03,2.16,1.02.38,0,.77-.08,1.14-.25h29.27s12.88,22.32,12.88,22.32h-57.92s-80.42-139.23-80.42-139.23l-158.08-.03,12.87-22.31ZM1280.13,612.86l15.13,26.2c.08.17.17.33.28.48l15.82,27.39c.09.2.19.38.32.56l15.76,27.28c.09.22.21.43.36.63l15.73,27.24c.1.24.22.46.38.66l15.61,27.02c.34,1.16,1.4,2.01,2.67,2.01l159.45.03,15.13,26.2c.08.17.17.33.28.48l15.82,27.39c.09.2.19.38.32.56l15.76,27.28c.09.22.21.43.36.63l15.73,27.24c.1.24.22.46.38.66l15.5,26.83c.11.35.28.67.51.94l13.46,23.33h-25.72s-80.41-139.22-80.41-139.22l-160.95-.03-80.56-139.47-158.09-.03,12.87-22.31,158.1.03ZM1540.88,997.55l-80.42-139.22-160.95-.03-80.56-139.47-158.07-.03,12.87-22.31,158.07.03,79.4,137.45c.34,1.16,1.4,2.01,2.67,2.01l159.45.03,79.28,137.25c.15.46.4.88.75,1.2.54.65,1.33,1.01,2.14,1.01.38,0,.77-.08,1.13-.25l93.67.02,12.88,22.32-122.31-.02ZM1556.98,969.65l-80.42-139.22-160.95-.03-80.56-139.47-158.07-.03,12.87-22.31,158.08.03,79.4,137.45c.34,1.16,1.4,2.01,2.67,2.01l159.45.03,79.28,137.25c.15.47.4.88.75,1.21.54.64,1.33,1,2.14,1,.38,0,.76-.08,1.13-.24h61.48s12.88,22.32,12.88,22.32h-90.11ZM1573.08,941.77l-80.42-139.22-160.95-.03-80.56-139.47-158.08-.03,12.87-22.31,158.09.03,79.4,137.45c.34,1.16,1.4,2.01,2.67,2.01l159.45.03,79.29,137.26c.14.45.39.86.73,1.18.54.66,1.34,1.03,2.16,1.03.38,0,.77-.08,1.14-.25h29.27s12.88,22.32,12.88,22.32h-57.92ZM1109.27,584.56h22.64s-11.32,19.61-11.32,19.61l-11.32-19.61ZM1135.13,578.98h-29.08s-12.88-22.31-12.88-22.31h54.83s-12.88,22.31-12.88,22.31ZM1151.23,551.08h-61.27s-12.87-22.3-12.87-22.3h87.02s-12.88,22.3-12.88,22.3ZM1167.32,523.19h-93.46s-12.88-22.3-12.88-22.3l119.21-.02-12.88,22.32ZM1183.42,495.29l-125.65.02-12.85-22.26,151.35-.02-12.85,22.26ZM879.23,464.87l-12.9-22.34,62.81-108.75h25.75s-75.66,131.09-75.66,131.09ZM850.22,414.64l46.71-80.87h25.77s-59.59,103.18-59.59,103.18l-12.88-22.31ZM834.12,386.77l30.61-53h25.76s-43.49,75.3-43.49,75.3l-12.88-22.3ZM818.01,358.88l14.51-25.12h25.76s-27.39,47.43-27.39,47.43l-12.88-22.31ZM803.5,333.75h22.58s-11.29,19.55-11.29,19.55l-11.29-19.55ZM879.1,743.64l-11.31-19.58h22.61s-11.3,19.58-11.3,19.58ZM893.62,718.48h-29.06s-12.89-22.31-12.89-22.31h54.82s-12.88,22.31-12.88,22.31ZM909.72,690.58h-61.26s-12.88-22.3-12.88-22.3h87.02s-12.88,22.3-12.88,22.3ZM925.81,662.69h-93.47s-12.89-22.3-12.89-22.3l119.23-.02-12.88,22.32ZM941.91,634.79l-125.68.02-12.86-22.26,151.39-.02-12.85,22.26ZM608.71,554.15l46.71-80.87h25.77s-59.59,103.18-59.59,103.18l-12.88-22.31ZM592.61,526.27l30.61-53h25.76s-43.49,75.3-43.49,75.3l-12.88-22.3ZM576.5,498.38l14.51-25.12h25.76s-27.39,47.43-27.39,47.43l-12.88-22.31ZM561.99,473.25h22.58s-11.29,19.55-11.29,19.55l-11.29-19.55ZM687.63,473.28h25.75s-75.66,131.09-75.66,131.09l-12.9-22.34,62.81-108.75ZM718.22,476.07l12.86,22.26-62.86,108.93h-25.71s75.71-131.19,75.71-131.19ZM734.3,503.9l12.89,22.31-46.77,81.04h-25.76s59.64-103.35,59.64-103.35ZM750.41,531.8l12.88,22.31-30.68,53.16h-25.75s43.55-75.47,43.55-75.47ZM766.51,559.68l12.89,22.31-14.59,25.28h-25.76s27.47-47.59,27.47-47.59ZM782.62,587.57l11.39,19.71h-22.76s11.37-19.71,11.37-19.71ZM395.55,473.25c.2.04.4.07.61.07l159.45.03,15.13,26.2c.08.17.17.33.28.49l15.82,27.38c.09.2.19.39.32.56l15.76,27.28c.09.22.21.43.36.63l15.74,27.24c.1.23.22.45.38.65l15.61,27.02c.34,1.16,1.4,2.01,2.67,2.01l159.45.03,63.45,109.85s.05.1.08.15l15.75,27.27c.11.35.28.67.51.94l13.46,23.32h-25.72s-79.61-137.82-79.61-137.82l-.81-1.39-160.95-.03-80.56-139.47-161.01-.03-12.92-22.37h26.76ZM747.18,805.22l-46.78,81.05h-25.77s59.65-103.36,59.65-103.36l12.89,22.31ZM750.41,810.8l12.88,22.31-30.68,53.16h-25.76s43.56-75.46,43.56-75.46ZM766.51,838.68l12.89,22.31-14.58,25.26h-25.77s27.46-47.57,27.46-47.57ZM782.62,866.57l11.37,19.68h-22.73s11.36-19.68,11.36-19.68ZM718.22,755.07l12.86,22.26-62.88,108.95h-25.71s75.73-131.21,75.73-131.21ZM559.11,1030.53c.18-.18.34-.38.47-.61l79.75-138.07,159.45-.03c.43,0,.83-.1,1.19-.27l154.8-.02-12.85,22.26-127.27.02c-.46,0-.88.12-1.26.32l-161.17.03-80.45,139.27h-25.88s13.22-22.91,13.22-22.91ZM542.67,1059.02h29.6c.32.12.66.18,1,.18.96,0,1.9-.5,2.42-1.39l79.75-138.07,159.45-.03c.46,0,.88-.12,1.26-.32l122.55-.02-12.88,22.32h-95.07c-.45.01-.88.13-1.25.32l-161.18.03-80.45,139.28h-58.07s12.88-22.31,12.88-22.31ZM526.57,1086.92h61.81c.32.11.65.18.98.18.96,0,1.9-.5,2.42-1.4l79.75-138.07,159.45-.03c.45,0,.87-.12,1.25-.31h90.36s-12.88,22.3-12.88,22.3h-62.88c-.45,0-.88.13-1.26.32l-161.18.03-80.45,139.28h-90.27s12.88-22.3,12.88-22.3ZM510.47,1114.81h94c.32.11.65.17.98.17.96,0,1.9-.5,2.42-1.39l79.75-138.07,159.45-.03c.45,0,.88-.12,1.26-.31h58.16s-12.88,22.3-12.88,22.3h-30.68c-.45,0-.87.12-1.25.31l-161.19.03-80.45,139.29-122.46.02,12.88-22.32ZM1091.61,888.75l-80.5-139.5,80.5-139.5-80.39-139.31,12.91-22.38,13.3,23.02c.02.07.05.14.08.2.02.05.04.09.06.14.03.07.06.15.1.22l79.7,138.1-79.7,138.1s-.03.08-.05.11c-.03.07-.06.13-.09.2-.04.1-.08.2-.11.3-.02.07-.03.14-.05.22-.02.1-.04.2-.05.3,0,.09,0,.17,0,.26s0,.17,0,.26c0,.1.03.2.05.3.02.07.03.15.05.22.03.09.06.17.09.26.1.36.29.7.53,1l15.67,27.15c.1.25.23.49.41.71l15.72,27.24c.09.22.21.43.36.62l15.75,27.3c.09.2.19.39.33.57l15.8,27.37c.05.11.11.2.17.3l15.12,26.2-78.92,136.75h-25.76s78.92-136.75,78.92-136.75ZM1107.82,861.05l62.82-108.77h25.75s-75.67,131.12-75.67,131.12l-12.9-22.35ZM1104.6,855.47l-12.88-22.32,46.71-80.88h25.77s-59.6,103.2-59.6,103.2ZM1088.5,827.57l-12.87-22.31,30.6-52.99h25.76s-43.49,75.3-43.49,75.3ZM1072.41,799.68l-12.88-22.32,14.5-25.1h25.76s-27.38,47.42-27.38,47.42ZM1056.31,771.78l-11.27-19.53h22.55s-11.28,19.53-11.28,19.53ZM1265.64,866.57l11.37,19.68h-22.72s11.36-19.68,11.36-19.68ZM1539.31,771.8l-11.29-19.55h22.58s-11.29,19.55-11.29,19.55ZM1297.81,632.3l-11.29-19.55h22.58s-11.29,19.55-11.29,19.55ZM895.3,169.13l11.32,19.63h-22.66s11.33-19.63,11.33-19.63ZM913.06,188.75l-14.54-25.21,12.89-22.31,27.43,47.52h-25.77ZM945.27,188.76l-30.65-53.1,12.88-22.31,43.52,75.41h-25.76ZM977.48,188.77l-46.74-80.99,12.89-22.31,59.62,103.31h-25.77ZM1009.69,188.77l-62.84-108.89,12.88-22.3,75.77,131.19h-25.8ZM1119.11,54.75l12.77,22.13h-25.79s-12.78-22.12-12.78-22.12h25.79ZM1086.87,54.76l15.01,25.98c.09.21.2.4.33.57v.02c.53.89,1.46,1.39,2.43,1.39.39,0,.79-.09,1.17-.26h29.29s12.88,22.32,12.88,22.32h-57.99s-28.88-50.01-28.88-50.01h25.76ZM1054.67,54.77l31.11,53.87c.08.2.19.38.32.55v.02c.53.9,1.47,1.39,2.43,1.39.39,0,.79-.09,1.16-.26h61.5s12.88,22.32,12.88,22.32h-90.18s-44.98-77.9-44.98-77.9h25.76ZM1022.47,54.77l47.21,81.75c.08.2.2.38.32.56v.02c.53.9,1.47,1.4,2.43,1.4.39,0,.79-.09,1.17-.26h93.69s12.88,22.33,12.88,22.33l-122.38-.02-61.09-105.77h25.77ZM990.25,54.78l63.36,109.7c.08.17.17.33.28.48l.02.04c.52.9,1.45,1.4,2.42,1.4.39,0,.78-.09,1.16-.26l125.9.02,12.87,22.3-154.5.02-77.21-133.68h25.7ZM1196.27,194.03l-12.85,22.26-125.68.02-12.86-22.26,151.39-.02ZM1180.2,221.87l-12.88,22.32h-93.47s-12.89-22.3-12.89-22.3l119.24-.02ZM1164.1,249.77l-12.88,22.31h-61.26s-12.88-22.3-12.88-22.3h87.02ZM1148.01,277.66l-12.88,22.31h-29.06s-12.89-22.31-12.89-22.31h54.82ZM1131.91,305.56l-11.3,19.59-11.31-19.58h22.61ZM1104.45,20.98c-.45,0-.87.12-1.25.31l-161.19.03-78.93,136.64-12.88-22.31L929.14-.98l159.45-.03c.45,0,.88-.12,1.26-.31h58.16s-12.88,22.31-12.88,22.31h-30.68ZM834.12,107.76l78.92-136.63,159.45-.03c.45,0,.87-.12,1.25-.31h90.36s-12.88,22.3-12.88,22.3h-62.88c-.45,0-.88.13-1.26.32l-161.18.03-78.93,136.64-12.88-22.31ZM818.02,79.87l78.92-136.62,159.45-.03c.46,0,.88-.12,1.26-.32l122.55-.02-12.88,22.32h-95.07c-.45.01-.87.13-1.25.32l-161.18.03-78.92,136.63-12.88-22.31ZM880.84-84.64l159.45-.03c.43,0,.82-.1,1.19-.27l154.8-.02-12.85,22.26-127.27.02c-.46,0-.88.12-1.26.32l-161.17.03-78.92,136.62-12.88-22.31,78.91-136.62ZM866.31,163.55l78.93-136.65,159.45-.03c.45,0,.87-.12,1.25-.31h25.98s-13.05,22.61-13.05,22.61l-160.74.03-78.93,136.65-12.88-22.31ZM880.52,194.33l158.1.03,63.45,109.85s.05.1.09.15l15.75,27.27c.11.35.28.67.51.94l13.46,23.32h-25.72s-80.41-139.22-80.41-139.22l-158.09-.03,12.87-22.31ZM545.92,166.37h27.42c.41,0,.79-.09,1.14-.24l125.88.02,12.87,22.3-154.57.02-12.75-22.1ZM558.95-84.95l154.3-.02-12.85,22.26-127.27.02c-.5,0-.97.14-1.37.38h-25.88s13.07-22.64,13.07-22.64ZM542.67-56.72h30.68c.5,0,.97-.15,1.37-.38l122.47-.02-12.88,22.32h-95.07c-.5.01-.97.16-1.37.39h-58.07s12.88-22.31,12.88-22.31ZM526.57-28.83h62.88c.5,0,.97-.15,1.37-.38h90.27s-12.88,22.3-12.88,22.3h-62.88c-.5,0-.97.15-1.37.38h-90.27s12.88-22.3,12.88-22.3ZM510.47-.94h95.07c.5-.01.97-.16,1.37-.39h58.07s-12.88,22.31-12.88,22.31h-30.68c-.5,0-.97.15-1.37.38l-122.47.02,12.88-22.32ZM494.37,26.96l127.27-.02c.5,0,.97-.14,1.37-.38h25.88s-13.07,22.64-13.07,22.64l-154.3.02,12.85-22.26ZM636.11,54.78l12.75,22.1h-27.42s0,0,0,0c-.41,0-.79.09-1.14.25l-125.88-.02-12.87-22.3,154.57-.02ZM621.64,82.71h0c.41,0,.79-.09,1.14-.25h29.29s12.88,22.32,12.88,22.32h-59.62s0,0,0,0c-.41,0-.79.09-1.14.25h-93.68s-12.88-22.33-12.88-22.33l124.02.02ZM605.54,110.6h0c.41,0,.79-.09,1.14-.25h61.49s12.88,22.32,12.88,22.32h-91.82s0-.01,0-.01c-.41,0-.79.09-1.14.25h-61.49s-12.88-22.32-12.88-22.32h91.82ZM589.44,138.48h0c.41,0,.79-.09,1.14-.25h93.68s12.88,22.33,12.88,22.33l-124.02-.02h0c-.41,0-.79.09-1.14.25h-29.29s-12.88-22.32-12.88-22.32h59.62ZM380.14,213.81l-78.93-136.64-161.01-.03-12.92-22.37h27.11c.1,0,.2.01.31.01.12,0,.24,0,.36-.02h31.47c.12.02.24.02.37.02s.24,0,.37-.02h31.5c.11.01.22.02.34.02s.23,0,.34-.02h31.51c.12.01.23.02.35.02s.24,0,.36-.02h31.55c.1.01.2.02.3.02s.2,0,.3-.02h30.26l78.94,136.79-12.86,22.27ZM364.04,241.69l-78.93-136.64-161.02-.03-29.02-50.25h25.76s15.11,26.16,15.11,26.16c.3.77.92,1.36,1.7,1.62.09.03.19.06.28.09.04,0,.07.01.11.02.18.04.37.06.56.06.06,0,.12,0,.17-.01l159.22.03,78.93,136.64-12.88,22.3ZM347.94,269.57l-78.92-136.63-161.02-.03L62.87,54.77h25.76s31.23,54.06,31.23,54.06c.24.6.68,1.08,1.23,1.39.03.01.05.03.08.04.09.04.17.09.26.12.14.06.29.1.45.14,0,0,.02,0,.02,0,.2.04.4.07.6.07.08,0,.15,0,.23-.01l159.17.03,78.93,136.64-12.88,22.3ZM331.83,297.45l-78.92-136.63-161.02-.03L30.66,54.78h25.77s47.33,81.94,47.33,81.94c.24.6.69,1.1,1.25,1.41.01,0,.03.01.04.02.09.05.19.1.29.14.14.06.28.1.43.13.01,0,.03,0,.04,0,.19.04.39.07.59.07.07,0,.14,0,.22-.01l159.18.03,78.92,136.63-12.88,22.3ZM256.03,328.26l27.46-47.58,12.88,22.31-14.58,25.26h-25.77ZM223.83,328.26l43.56-75.47,12.88,22.31-30.68,53.16h-25.76ZM191.62,328.27l59.65-103.37,12.89,22.31-46.78,81.05h-25.77ZM159.47,328.28l75.73-131.21,12.86,22.26-62.88,108.95h-25.71ZM138.6,353.36l-11.32-19.6h22.65s-11.33,19.6-11.33,19.6ZM122.5,381.25l-27.42-47.48h25.76s14.55,25.18,14.55,25.18l-12.88,22.31ZM106.39,409.13l-43.52-75.35h25.76s30.64,53.05,30.64,53.05l-12.88,22.3ZM90.29,437.01l-59.63-103.23h25.77s46.74,80.92,46.74,80.92l-12.89,22.31ZM43.64,467.75l-62.83-108.87,12.88-22.3,75.75,131.16h-25.8ZM11.43,467.76l-46.74-80.98,12.89-22.31,59.61,103.29H11.43ZM-20.76,467.76l-30.65-53.1,12.88-22.31L4.99,467.76h-25.75ZM-52.96,467.77l-14.56-25.22,12.89-22.31,27.43,47.53h-25.76ZM-70.74,448.13l11.34,19.65h-22.69s11.35-19.65,11.35-19.65ZM74.21,464.85L-1.49,333.79h25.7s62.85,108.8,62.85,108.8l-12.86,22.26ZM299.6,308.57l11.37,19.68h-22.73s11.36-19.68,11.36-19.68ZM315.73,325.33l-78.91-136.62-160.97-.03L-1.49,54.79h25.7s63.45,109.84,63.45,109.84c.23.58.66,1.05,1.2,1.36.05.03.1.06.15.08.07.03.13.07.2.09.34.14.71.22,1.08.22.08,0,.16,0,.24-.02l159.16.03,78.92,136.62-12.88,22.3ZM43.64,188.75L-19.19,79.88l12.88-22.3,75.75,131.16h-25.8ZM11.43,188.76l-46.74-80.98,12.89-22.31,59.61,103.29H11.43ZM-20.76,188.76l-30.65-53.1,12.88-22.31L4.99,188.76h-25.75ZM-52.96,188.77l-14.56-25.22,12.89-22.31,27.43,47.53h-25.76ZM-70.74,169.13l11.34,19.65h-22.69s11.35-19.65,11.35-19.65ZM170.77,29.63l11.28,19.54h-22.57l11.29-19.54ZM186.88,1.74l27.38,47.43h-25.76l-14.5-25.12,12.89-22.31ZM202.98-26.15l43.47,75.32h-25.76L190.1-3.84l12.88-22.31ZM219.09-54.04l59.56,103.21h-25.76l-46.69-80.9,12.89-22.31ZM235.2-81.91l75.71,131.08h-25.8l-62.78-108.79,12.88-22.3ZM265.73-84.72l62.86,108.82-12.85,22.27-75.71-131.09h25.7ZM297.94-84.73L344.68-3.8l-12.88,22.32-59.63-103.24h25.77ZM330.14-84.73l30.63,53.05-12.87,22.31-43.52-75.35h25.76ZM362.34-84.74l14.53,25.15-12.88,22.32-27.41-47.47h25.76ZM380.1-65.17l-11.31-19.57h22.61s-11.3,19.57-11.3,19.57ZM14.67,1025.51l27.32-47.33,12.89,22.31-14.44,25.02H14.67ZM-17.53,1025.52l43.41-75.22,12.88,22.31-30.54,52.91h-25.76ZM-49.75,1025.52l59.51-103.12,12.89,22.31-46.63,80.8h-25.77ZM58.09,1006.07l11.23,19.43h-22.44s11.22-19.43,11.22-19.43ZM-6.31,894.57l12.86,22.26-62.73,108.7h-25.71S-6.31,894.57-6.31,894.57ZM624.81,861.05l62.82-108.77h25.75s-75.67,131.12-75.67,131.12l-12.9-22.35ZM1283.27,1164.97l-77.21-133.69h25.7s63.35,109.67,63.35,109.67c.08.18.18.35.29.51l.02.03c.52.89,1.45,1.4,2.42,1.4.39,0,.78-.09,1.15-.26l125.91.02,12.87,22.3-154.5.02ZM1299.3,1137.05l-61.09-105.77h25.77s47.21,81.74,47.21,81.74c.09.2.2.39.33.57v.02c.53.89,1.46,1.4,2.43,1.4.39,0,.79-.09,1.16-.26l93.7.02,12.88,22.32-122.38-.02ZM1315.4,1109.16l-44.98-77.88h25.76s31.11,53.86,31.11,53.86c.08.2.2.39.32.56v.02c.53.9,1.46,1.4,2.43,1.4.39,0,.79-.09,1.16-.26h61.5s12.88,22.32,12.88,22.32h-90.18ZM1331.5,1081.27l-28.88-50h25.76s15,25.97,15,25.97c.09.21.2.4.34.58h0c.52.9,1.45,1.4,2.42,1.4.39,0,.79-.09,1.17-.26h29.3s12.88,22.32,12.88,22.32h-57.98ZM1347.6,1053.38l-12.78-22.12h25.79s12.77,22.13,12.77,22.13h-25.78ZM1592.29,1142.56h22.64s-11.32,19.61-11.32,19.61l-11.32-19.61ZM1976.06,467.75l-62.83-108.87,12.88-22.3,75.75,131.16h-25.8ZM1943.85,467.76l-46.74-80.98,12.89-22.31,59.61,103.29h-25.76ZM1911.66,467.76l-30.65-53.1,12.88-22.31,43.52,75.4h-25.75ZM1879.46,467.77l-14.56-25.22,12.88-22.31,27.43,47.53h-25.76ZM1861.68,448.13l11.34,19.65h-22.69s11.35-19.65,11.35-19.65ZM1619.82,308.63l11.32,19.62h-22.66s11.33-19.62,11.33-19.62ZM1637.59,328.25l-14.54-25.21,12.88-22.31,27.43,47.52h-25.77ZM1669.8,328.26l-30.65-53.1,12.88-22.31,43.52,75.41h-25.76ZM1702.01,328.27l-46.74-80.99,12.89-22.31,59.62,103.31h-25.77ZM1734.21,328.27l-62.84-108.89,12.88-22.3,75.77,131.19h-25.8ZM1714.78,194.28l63.02,109.11-12.86,22.26-75.87-131.36h25.7ZM1746.99,194.27l46.91,81.23-12.88,22.31-59.8-103.53h25.77ZM1779.2,194.27l30.81,53.36-12.88,22.3-43.69-75.65h25.76ZM1811.4,194.26l14.72,25.48-12.88,22.31-27.59-47.78h25.76ZM1861.68,169.13l11.34,19.65h-22.69s11.35-19.65,11.35-19.65ZM1877.79,141.24l27.43,47.53h-25.76s-14.56-25.22-14.56-25.22l12.88-22.31ZM1893.89,113.35l43.52,75.4h-25.75s-30.65-53.1-30.65-53.1l12.88-22.31ZM1910,85.46l59.61,103.29h-25.76s-46.74-80.98-46.74-80.98l12.89-22.31ZM1926.11,57.59l75.75,131.16h-25.8s-62.83-108.86-62.83-108.86l12.88-22.3ZM1829.34,214.16l-11.5-19.9h22.99s-11.5,19.9-11.5,19.9ZM1605.05,333.83l158.1.03,79.11,136.95-12.88,22.3-79.1-136.94-158.09-.03,12.87-22.31ZM1813.27,520.99l-79.1-136.94-158.08-.03,12.87-22.31,158.09.03,79.1,136.94-12.88,22.3ZM1797.16,548.87l-79.09-136.93-158.07-.03,12.87-22.31,158.08.03,79.1,136.94-12.88,22.3ZM1781.06,576.75l-79.09-136.92-158.07-.03,12.87-22.31,158.07.03,79.09,136.93-12.88,22.3ZM1705.09,607.27l27.46-47.58,12.89,22.31-14.59,25.28h-25.76ZM1672.89,607.26l43.55-75.46,12.88,22.31-30.68,53.16h-25.75ZM1640.69,607.25l59.64-103.35,12.89,22.31-46.77,81.04h-25.76ZM1608.54,607.25l75.71-131.18,12.86,22.26-62.86,108.93h-25.71ZM1574.75,554.15l46.71-80.87h25.77s-59.59,103.18-59.59,103.18l-12.88-22.31ZM1558.64,526.27l30.61-53h25.76s-43.49,75.3-43.49,75.3l-12.88-22.3ZM1542.54,498.38l14.51-25.12h25.76s-27.39,47.43-27.39,47.43l-12.89-22.31ZM1528.02,473.25h22.58s-11.29,19.55-11.29,19.55l-11.29-19.55ZM1653.67,473.28h25.75s-75.65,131.09-75.65,131.09l-12.9-22.34,62.81-108.75ZM1748.66,587.57l11.38,19.71h-22.76s11.37-19.71,11.37-19.71ZM1764.96,604.62l-79.09-136.92-158.06-.03,12.87-22.31,158.06.03,79.09,136.92-12.88,22.3ZM1334.69,417.17h54.83s-12.88,22.31-12.88,22.31h-29.08s-12.88-22.31-12.88-22.31ZM1302.5,361.39l119.21-.02-12.88,22.32h-93.46s-12.88-22.3-12.88-22.3ZM1286.43,333.55l151.35-.02-12.85,22.26-125.65.02-12.85-22.26ZM1299.31,305.63l125.59.02,12.87,22.3-151.35.02,12.89-22.34ZM1315.41,277.73h93.39s12.88,22.33,12.88,22.33l-119.15-.02,12.88-22.31ZM1331.5,249.85h61.2s12.88,22.32,12.88,22.32h-86.95s12.87-22.32,12.87-22.32ZM1347.6,221.96h29.01s12.88,22.32,12.88,22.32h-54.76s12.88-22.32,12.88-22.32ZM1405.61,389.27l-12.88,22.31h-61.27s-12.87-22.3-12.87-22.3h87.02ZM1334.69,138.17h54.83s-12.88,22.31-12.88,22.31h-29.08s-12.88-22.31-12.88-22.31ZM1302.5,82.39l119.21-.02-12.88,22.32h-93.46s-12.88-22.3-12.88-22.3ZM1286.43,54.55l151.35-.02-12.85,22.26-125.65.02-12.85-22.26ZM1299.31,26.63l125.59.02,12.87,22.3-151.35.02,12.89-22.34ZM1315.41-1.27h93.39s12.88,22.33,12.88,22.33l-119.15-.02,12.88-22.31ZM1331.5-29.15h61.2s12.88,22.32,12.88,22.32h-86.95s12.87-22.32,12.87-22.32ZM1347.6-57.04h29.01s12.88,22.32,12.88,22.32h-54.76s12.88-22.32,12.88-22.32ZM1405.61,110.27l-12.88,22.31h-61.27s-12.87-22.3-12.87-22.3h87.02ZM1362.1-82.18l11.29,19.56h-22.57s11.28-19.56,11.28-19.56ZM1350.78,166.06h22.64s-11.32,19.61-11.32,19.61l-11.32-19.61ZM1362.1,196.82l11.29,19.56h-22.57s11.28-19.56,11.28-19.56ZM1350.78,445.06h22.64s-11.32,19.61-11.32,19.61l-11.32-19.61ZM1861.68,727.13l11.32,19.62h-22.66s11.33-19.62,11.33-19.62ZM1877.79,699.24l27.43,47.52h-25.77s-14.54-25.21-14.54-25.21l12.88-22.31ZM1893.89,671.35l43.52,75.41h-25.76s-30.65-53.1-30.65-53.1l12.88-22.31ZM1910,643.46l59.62,103.31h-25.77s-46.74-80.99-46.74-80.99l12.89-22.31ZM1926.11,615.59l75.77,131.19h-25.8s-62.84-108.89-62.84-108.89l12.88-22.29Z"/>
  <path class="st1" d="M136.93,21.29l-160.95.03-81.36,140.86c-.77,1.33-.31,3.04,1.02,3.81.44.25.92.37,1.39.37.96,0,1.9-.5,2.42-1.4L-20.8,26.9l159.45-.03c1.27,0,2.33-.85,2.67-2.02l79.39-137.45,159.45-.03c1.54,0,2.79-1.25,2.79-2.79,0-1.54-1.25-2.79-2.79-2.79l-162.67.03L136.93,21.29Z"/>
  <path class="st1" d="M120.83-6.6l-160.95.03-81.36,140.86c-.77,1.33-.31,3.04,1.02,3.81.44.25.92.37,1.39.37.96,0,1.9-.5,2.42-1.39L-36.9-.98l159.45-.03c1.27,0,2.33-.85,2.67-2.02l79.4-137.45,159.45-.03c1.54,0,2.79-1.25,2.79-2.79,0-1.54-1.25-2.79-2.79-2.79l-162.67.03L120.83-6.6Z"/>
  <path class="st1" d="M104.73-34.48l-160.95.03-81.36,140.86c-.77,1.33-.31,3.04,1.02,3.81.44.25.92.37,1.39.37.96,0,1.9-.5,2.42-1.39L-53-28.87l159.45-.03c1.27,0,2.33-.85,2.67-2.02l79.4-137.45,159.45-.03c1.54,0,2.79-1.25,2.79-2.79,0-1.54-1.25-2.79-2.79-2.79l-162.67.03L104.73-34.48Z"/>
  <path class="st1" d="M88.63-62.37l-160.95.03-81.36,140.86c-.77,1.33-.31,3.04,1.02,3.81.44.25.92.37,1.39.37.96,0,1.9-.5,2.42-1.39L-69.1-56.76l159.45-.03c1.27,0,2.33-.85,2.67-2.02l79.4-137.45,159.45-.03c1.54,0,2.79-1.25,2.79-2.79,0-1.54-1.25-2.79-2.79-2.79l-162.67.03L88.63-62.37Z"/>
  <path class="st1" d="M-168.76,54.45c.44.25.92.37,1.39.37.96,0,1.9-.5,2.42-1.4L-85.2-84.64l159.45-.03c1.27,0,2.33-.85,2.67-2.02l79.4-137.45,159.45-.03c1.54,0,2.79-1.25,2.79-2.79,0-1.54-1.25-2.79-2.79-2.79l-162.67.03L72.53-90.25l-160.95.03L-169.78,50.64c-.77,1.33-.31,3.04,1.02,3.81Z"/>
  <path class="st1" d="M2071.07,1142.62c1.54,0,2.79-1.25,2.79-2.79s-1.25-2.79-2.79-2.79l-162.67.03-81.36,140.86c-.77,1.33-.31,3.04,1.02,3.81.44.25.92.37,1.39.37.96,0,1.9-.5,2.42-1.39l79.75-138.07,159.45-.03Z"/>
  <path class="st1" d="M2054.97,1114.74c1.54,0,2.79-1.25,2.79-2.79s-1.25-2.79-2.79-2.79l-162.67.03-81.36,140.86c-.77,1.33-.31,3.04,1.02,3.81.44.25.92.37,1.39.37.96,0,1.9-.5,2.42-1.39l79.75-138.07,159.45-.03Z"/>
  <path class="st1" d="M2038.87,1086.85c1.54,0,2.79-1.25,2.79-2.79s-1.25-2.79-2.79-2.79l-162.67.03-81.36,140.86c-.77,1.33-.31,3.04,1.02,3.81.44.25.92.37,1.39.37.96,0,1.9-.5,2.42-1.4l79.75-138.07,159.45-.03Z"/>
  <path class="st1" d="M2022.77,1058.96c1.54,0,2.79-1.25,2.79-2.79,0-1.54-1.25-2.79-2.79-2.79l-162.67.03-81.36,140.86c-.77,1.33-.31,3.04,1.02,3.81.44.25.92.37,1.39.37.96,0,1.9-.5,2.42-1.4l79.75-138.07,159.45-.03Z"/>
  <path class="st1" d="M2087.17,1164.93l-162.67.03-81.36,140.86c-.71,1.23-.37,2.77.74,3.61.05.04.1.07.15.11.05.03.08.07.13.09.02.01.04.02.06.03.08.05.17.09.26.13,0,0,.01,0,.02.01.35.15.73.23,1.11.23.47,0,.96-.12,1.4-.38.59-.34.99-.86,1.21-1.45l13.47-23.32,13.71,23.75c.52.9,1.45,1.4,2.42,1.4.47,0,.95-.12,1.39-.37,1.34-.77,1.79-2.48,1.02-3.81l-15.32-26.54,12.88-22.31,29.8,51.64c.52.9,1.45,1.4,2.42,1.4.47,0,.95-.12,1.39-.37,1.33-.77,1.79-2.48,1.02-3.81l-31.41-54.43,12.88-22.31,45.9,79.52c.52.9,1.45,1.4,2.42,1.4.47,0,.95-.12,1.39-.37,1.34-.77,1.79-2.48,1.02-3.81l-47.51-82.31,12.89-22.31,61.99,107.41c.52.9,1.45,1.4,2.42,1.4.47,0,.95-.12,1.39-.37,1.34-.77,1.79-2.48,1.02-3.81l-63.6-110.2,12.88-22.29,78.1,135.23c.52.9,1.45,1.4,2.42,1.4.47,0,.95-.12,1.39-.37,1.33-.77,1.79-2.48,1.02-3.81l-78.11-135.24h25.7s63.66,110.2,63.66,110.2c.52.89,1.45,1.4,2.42,1.4.47,0,.95-.12,1.39-.37,1.33-.77,1.79-2.48,1.02-3.81l-62.04-107.42h25.77s47.55,82.32,47.55,82.32c.52.89,1.45,1.4,2.42,1.4.47,0,.95-.12,1.39-.37,1.33-.77,1.79-2.48,1.02-3.81l-45.94-79.54h25.76s31.44,54.44,31.44,54.44c.52.9,1.45,1.4,2.42,1.4.47,0,.95-.12,1.39-.37,1.33-.77,1.79-2.48,1.02-3.81l-29.83-51.66h25.76s15.35,26.56,15.35,26.56c.52.9,1.45,1.39,2.42,1.39.47,0,.95-.12,1.39-.37,1.33-.77,1.79-2.48,1.02-3.81l-13.73-23.78h27.47c1.54,0,2.79-1.26,2.79-2.8s-1.25-2.79-2.79-2.79Z"/>
</svg>